M48
INCH,TZ
T1C0.016
T2C0.028
T3C0.035
T4C0.059
T5C0.087
T6C0.098
T7C0.126
%
G90
G05
T1
X2.8701Y-7.3189
X3.0315Y-7.2441
X3.0512Y-5.4528
X3.1004Y-7.3524
X3.2677Y-4.4783
X3.3169Y-5.187
X3.4055Y-4.626
X3.4547Y-7.4508
X3.4941Y-7.2913
X3.5039Y-7.4409
X3.5335Y-7.4213
X3.563Y-6.8504
X3.5728Y-7.0177
X3.5965Y-6.9469
X3.6516Y-5.5217
X3.7795Y-6.7224
X3.8484Y-6.6339
X4.1784Y-7.09
X4.2323Y-6.4961
X4.3602Y-6.4961
X4.9055Y-6.6299
X8.1398Y-6.624
X8.5138Y-5.7972
X8.5138Y-5.9449
X8.7008Y-7.3307
X8.7205Y-6.624
X8.7992Y-7.3917
X10.374Y-6.7913
T3
X2.9528Y-4.3996
X3.0413Y-5.8957
X3.0528Y-4.3996
X3.1413Y-5.8957
X3.2366Y-5.8957
X3.3366Y-5.8957
T7
X3.6142Y-5.0157
T2
X3.2126Y-3.9705G85X3.2126Y-4.0689
G05
X3.5Y-3.9705G85X3.5Y-4.0689
G05
T4
X2.8819Y-4.0613G85X2.85Y-4.1187
G05
X2.9757Y-5.5613G85X2.9437Y-5.6187
G05
X3.0694Y-4.8113G85X3.0375Y-4.8687
G05
X3.1Y-4.0188G85X3.0984Y-4.0416
G05
X3.1632Y-5.5613G85X3.1312Y-5.6187
G05
X3.1937Y-5.5188G85X3.1922Y-5.5416
G05
X3.2875Y-4.7688G85X3.2859Y-4.7916
G05
X3.3507Y-6.3113G85X3.3187Y-6.3687
G05
X3.3812Y-5.5188G85X3.3797Y-5.5416
G05
X3.5382Y-6.3113G85X3.5062Y-6.3687
G05
X3.5687Y-6.2688G85X3.5672Y-6.2916
G05
X3.6319Y-4.0613G85X3.6Y-4.1187
G05
X3.7562Y-6.2688G85X3.7547Y-6.2916
G05
X3.85Y-4.0188G85X3.8484Y-4.0416
G05
X4.0069Y-4.8113G85X3.975Y-4.8687
G05
X4.1944Y-5.5613G85X4.1625Y-5.6187
G05
X4.1944Y-7.0613G85X4.1625Y-7.1187
G05
X4.225Y-4.7688G85X4.2234Y-4.7916
G05
X4.3819Y-4.0613G85X4.35Y-4.1187
G05
X4.4125Y-5.5188G85X4.4109Y-5.5416
G05
X4.4125Y-7.0188G85X4.4109Y-7.0416
G05
X4.5694Y-6.3113G85X4.5375Y-6.3687
G05
X4.6Y-4.0188G85X4.5984Y-4.0416
G05
X4.7569Y-4.8113G85X4.725Y-4.8687
G05
X4.7875Y-6.2688G85X4.7859Y-6.2916
G05
X4.9444Y-5.5613G85X4.9125Y-5.6187
G05
X4.975Y-4.7688G85X4.9734Y-4.7916
G05
X5.0382Y-7.0613G85X5.0062Y-7.1187
G05
X5.1319Y-4.0613G85X5.1Y-4.1187
G05
X5.1319Y-7.0613G85X5.1Y-7.1187
G05
X5.1625Y-5.5188G85X5.1609Y-5.5416
G05
X5.2562Y-7.0188G85X5.2547Y-7.0416
G05
X5.3194Y-6.3113G85X5.2875Y-6.3687
G05
X5.35Y-4.0188G85X5.3484Y-4.0416
G05
X5.35Y-7.0188G85X5.3484Y-7.0416
G05
X5.5069Y-4.8113G85X5.475Y-4.8687
G05
X5.5375Y-6.2688G85X5.5359Y-6.2916
G05
X5.6944Y-5.5613G85X5.6625Y-5.6187
G05
X5.725Y-4.7688G85X5.7234Y-4.7916
G05
X5.8819Y-4.0613G85X5.85Y-4.1187
G05
X5.9125Y-5.5188G85X5.9109Y-5.5416
G05
X6.0694Y-6.3113G85X6.0375Y-6.3687
G05
X6.1Y-4.0188G85X6.0984Y-4.0416
G05
X6.2569Y-4.8113G85X6.225Y-4.8687
G05
X6.2875Y-6.2688G85X6.2859Y-6.2916
G05
X6.4444Y-5.5613G85X6.4125Y-5.6187
G05
X6.475Y-4.7688G85X6.4734Y-4.7916
G05
X6.6319Y-4.0613G85X6.6Y-4.1187
G05
X6.6625Y-5.5188G85X6.6609Y-5.5416
G05
X6.8194Y-6.3113G85X6.7875Y-6.3687
G05
X6.85Y-4.0188G85X6.8484Y-4.0416
G05
X7.0069Y-4.8113G85X6.975Y-4.8687
G05
X7.0375Y-6.2688G85X7.0359Y-6.2916
G05
X7.1944Y-5.5613G85X7.1625Y-5.6187
G05
X7.225Y-4.7688G85X7.2234Y-4.7916
G05
X7.3819Y-4.0613G85X7.35Y-4.1187
G05
X7.4125Y-5.5188G85X7.4109Y-5.5416
G05
X7.5694Y-6.3113G85X7.5375Y-6.3687
G05
X7.5694Y-7.0613G85X7.5375Y-7.1187
G05
X7.6Y-4.0188G85X7.5984Y-4.0416
G05
X7.7569Y-4.8113G85X7.725Y-4.8687
G05
X7.7875Y-6.2688G85X7.7859Y-6.2916
G05
X7.7875Y-7.0188G85X7.7859Y-7.0416
G05
X7.9444Y-5.5613G85X7.9125Y-5.6187
G05
X7.975Y-4.7688G85X7.9734Y-4.7916
G05
X8.0382Y-7.0613G85X8.0062Y-7.1187
G05
X8.1319Y-4.0613G85X8.1Y-4.1187
G05
X8.1319Y-7.0613G85X8.1Y-7.1187
G05
X8.1625Y-5.5188G85X8.1609Y-5.5416
G05
X8.2562Y-7.0188G85X8.2547Y-7.0416
G05
X8.3194Y-6.3113G85X8.2875Y-6.3687
G05
X8.3194Y-7.0613G85X8.2875Y-7.1187
G05
X8.35Y-4.0188G85X8.3484Y-4.0416
G05
X8.35Y-7.0188G85X8.3484Y-7.0416
G05
X8.5069Y-4.8113G85X8.475Y-4.8687
G05
X8.5375Y-6.2688G85X8.5359Y-6.2916
G05
X8.5375Y-7.0188G85X8.5359Y-7.0416
G05
X8.6944Y-5.5613G85X8.6625Y-5.6187
G05
X8.725Y-4.7688G85X8.7234Y-4.7916
G05
X8.8819Y-4.0613G85X8.85Y-4.1187
G05
X8.9125Y-5.5188G85X8.9109Y-5.5416
G05
X9.0694Y-6.3113G85X9.0375Y-6.3687
G05
X9.1Y-4.0188G85X9.0984Y-4.0416
G05
X9.2569Y-4.8113G85X9.225Y-4.8687
G05
X9.2875Y-6.2688G85X9.2859Y-6.2916
G05
X9.4444Y-5.5613G85X9.4125Y-5.6187
G05
X9.475Y-4.7688G85X9.4734Y-4.7916
G05
X9.6319Y-4.0613G85X9.6Y-4.1187
G05
X9.6625Y-5.5188G85X9.6609Y-5.5416
G05
X9.8194Y-6.3113G85X9.7875Y-6.3687
G05
X9.85Y-4.0188G85X9.8484Y-4.0416
G05
X10.0069Y-4.8113G85X9.975Y-4.8687
G05
X10.0375Y-6.2688G85X10.0359Y-6.2916
G05
X10.1944Y-5.5613G85X10.1625Y-5.6187
G05
X10.225Y-4.7688G85X10.2234Y-4.7916
G05
X10.3819Y-4.0613G85X10.35Y-4.1187
G05
X10.4125Y-5.5188G85X10.4109Y-5.5416
G05
X10.5694Y-6.3113G85X10.5375Y-6.3687
G05
X10.6Y-4.0188G85X10.5984Y-4.0416
G05
X10.7569Y-4.8113G85X10.725Y-4.8687
G05
X10.7569Y-7.0613G85X10.725Y-7.1187
G05
X10.7875Y-6.2688G85X10.7859Y-6.2916
G05
X10.9444Y-5.5613G85X10.9125Y-5.6187
G05
X10.9444Y-7.0613G85X10.9125Y-7.1187
G05
X10.975Y-4.7688G85X10.9734Y-4.7916
G05
X10.975Y-7.0188G85X10.9734Y-7.0416
G05
X11.1319Y-4.0613G85X11.1Y-4.1187
G05
X11.1625Y-5.5188G85X11.1609Y-5.5416
G05
X11.1625Y-7.0188G85X11.1609Y-7.0416
G05
X11.2257Y-7.0613G85X11.1937Y-7.1187
G05
X11.3194Y-6.3113G85X11.2875Y-6.3687
G05
X11.35Y-4.0188G85X11.3484Y-4.0416
G05
X11.4437Y-7.0188G85X11.4422Y-7.0416
G05
X11.5069Y-4.8113G85X11.475Y-4.8687
G05
X11.5375Y-6.2688G85X11.5359Y-6.2916
G05
X11.6944Y-5.5613G85X11.6625Y-5.6187
G05
X11.6944Y-7.0613G85X11.6625Y-7.1187
G05
X11.725Y-4.7688G85X11.7234Y-4.7916
G05
X11.8819Y-4.0613G85X11.85Y-4.1187
G05
X11.8819Y-7.0613G85X11.85Y-7.1187
G05
X11.9125Y-5.5188G85X11.9109Y-5.5416
G05
X11.9125Y-7.0188G85X11.9109Y-7.0416
G05
X12.0694Y-7.0613G85X12.0375Y-7.1187
G05
X12.1Y-4.0188G85X12.0984Y-4.0416
G05
X12.1Y-7.0188G85X12.0984Y-7.0416
G05
X12.1632Y-6.3113G85X12.1312Y-6.3687
G05
X12.2569Y-4.8113G85X12.225Y-4.8687
G05
X12.2875Y-7.0188G85X12.2859Y-7.0416
G05
X12.3507Y-6.3113G85X12.3187Y-6.3687
G05
X12.3812Y-6.2688G85X12.3797Y-6.2916
G05
X12.475Y-4.7688G85X12.4734Y-4.7916
G05
X12.5687Y-6.2688G85X12.5672Y-6.2916
G05
X12.6319Y-4.0613G85X12.6Y-4.1187
G05
X12.85Y-4.0188G85X12.8484Y-4.0416
G05
X12.9132Y-5.5613G85X12.8812Y-5.6187
G05
X13.0069Y-6.3113G85X12.975Y-6.3687
G05
X13.1312Y-5.5188G85X13.1297Y-5.5416
G05
X13.1944Y-4.8113G85X13.1625Y-4.8687
G05
X13.225Y-6.2688G85X13.2234Y-6.2916
G05
X13.3819Y-4.0613G85X13.35Y-4.1187
G05
X13.3819Y-6.3113G85X13.35Y-6.3687
G05
X13.4125Y-4.7688G85X13.4109Y-4.7916
G05
X13.6Y-4.0188G85X13.5984Y-4.0416
G05
X13.6Y-6.2688G85X13.5984Y-6.2916
G05
T5
X2.4567Y-6.1417G85X2.7874Y-6.1417
G05
X13.6811Y-6.1417G85X14.0118Y-6.1417
G05
T6
X7.628Y-5.7677G85X7.7106Y-5.7677
G05
X10.0807Y-7.2362G85X10.1634Y-7.2362
G05
X12.8248Y-5.0197G85X12.9075Y-5.0197
G05
T0
M30
