G04 #@! TF.FileFunction,Paste,Bot*
%FSLAX46Y46*%
G04 Gerber Fmt 4.6, Leading zero omitted, Abs format (unit mm)*
G04 Created by KiCad (PCBNEW 4.0.5+dfsg1-4) date Tue May 30 14:12:21 2017*
%MOMM*%
%LPD*%
G01*
G04 APERTURE LIST*
%ADD10C,0.100000*%
%ADD11R,1.500000X1.250000*%
%ADD12R,1.250000X1.500000*%
%ADD13R,1.500000X1.300000*%
%ADD14R,1.000000X1.700000*%
%ADD15R,1.300000X1.500000*%
%ADD16R,0.500000X1.400000*%
%ADD17O,1.300000X3.800000*%
%ADD18R,1.200000X1.400000*%
%ADD19R,1.400000X1.200000*%
G04 APERTURE END LIST*
D10*
G36*
X82137958Y-175116280D02*
X82526866Y-175505188D01*
X81466206Y-176565848D01*
X81077298Y-176176940D01*
X82137958Y-175116280D01*
X82137958Y-175116280D01*
G37*
G36*
X82703643Y-175681966D02*
X83092551Y-176070874D01*
X82031891Y-177131534D01*
X81642983Y-176742626D01*
X82703643Y-175681966D01*
X82703643Y-175681966D01*
G37*
G36*
X83269328Y-176247651D02*
X83658236Y-176636559D01*
X82597576Y-177697219D01*
X82208668Y-177308311D01*
X83269328Y-176247651D01*
X83269328Y-176247651D01*
G37*
G36*
X83835014Y-176813336D02*
X84223922Y-177202244D01*
X83163262Y-178262904D01*
X82774354Y-177873996D01*
X83835014Y-176813336D01*
X83835014Y-176813336D01*
G37*
G36*
X84400699Y-177379022D02*
X84789607Y-177767930D01*
X83728947Y-178828590D01*
X83340039Y-178439682D01*
X84400699Y-177379022D01*
X84400699Y-177379022D01*
G37*
G36*
X84966385Y-177944707D02*
X85355293Y-178333615D01*
X84294633Y-179394275D01*
X83905725Y-179005367D01*
X84966385Y-177944707D01*
X84966385Y-177944707D01*
G37*
G36*
X85532070Y-178510393D02*
X85920978Y-178899301D01*
X84860318Y-179959961D01*
X84471410Y-179571053D01*
X85532070Y-178510393D01*
X85532070Y-178510393D01*
G37*
G36*
X86097756Y-179076078D02*
X86486664Y-179464986D01*
X85426004Y-180525646D01*
X85037096Y-180136738D01*
X86097756Y-179076078D01*
X86097756Y-179076078D01*
G37*
G36*
X86663441Y-179641764D02*
X87052349Y-180030672D01*
X85991689Y-181091332D01*
X85602781Y-180702424D01*
X86663441Y-179641764D01*
X86663441Y-179641764D01*
G37*
G36*
X87229126Y-180207449D02*
X87618034Y-180596357D01*
X86557374Y-181657017D01*
X86168466Y-181268109D01*
X87229126Y-180207449D01*
X87229126Y-180207449D01*
G37*
G36*
X87794812Y-180773134D02*
X88183720Y-181162042D01*
X87123060Y-182222702D01*
X86734152Y-181833794D01*
X87794812Y-180773134D01*
X87794812Y-180773134D01*
G37*
G36*
X88183720Y-184237958D02*
X87794812Y-184626866D01*
X86734152Y-183566206D01*
X87123060Y-183177298D01*
X88183720Y-184237958D01*
X88183720Y-184237958D01*
G37*
G36*
X87618034Y-184803643D02*
X87229126Y-185192551D01*
X86168466Y-184131891D01*
X86557374Y-183742983D01*
X87618034Y-184803643D01*
X87618034Y-184803643D01*
G37*
G36*
X87052349Y-185369328D02*
X86663441Y-185758236D01*
X85602781Y-184697576D01*
X85991689Y-184308668D01*
X87052349Y-185369328D01*
X87052349Y-185369328D01*
G37*
G36*
X86486664Y-185935014D02*
X86097756Y-186323922D01*
X85037096Y-185263262D01*
X85426004Y-184874354D01*
X86486664Y-185935014D01*
X86486664Y-185935014D01*
G37*
G36*
X85920978Y-186500699D02*
X85532070Y-186889607D01*
X84471410Y-185828947D01*
X84860318Y-185440039D01*
X85920978Y-186500699D01*
X85920978Y-186500699D01*
G37*
G36*
X85355293Y-187066385D02*
X84966385Y-187455293D01*
X83905725Y-186394633D01*
X84294633Y-186005725D01*
X85355293Y-187066385D01*
X85355293Y-187066385D01*
G37*
G36*
X84789607Y-187632070D02*
X84400699Y-188020978D01*
X83340039Y-186960318D01*
X83728947Y-186571410D01*
X84789607Y-187632070D01*
X84789607Y-187632070D01*
G37*
G36*
X84223922Y-188197756D02*
X83835014Y-188586664D01*
X82774354Y-187526004D01*
X83163262Y-187137096D01*
X84223922Y-188197756D01*
X84223922Y-188197756D01*
G37*
G36*
X83658236Y-188763441D02*
X83269328Y-189152349D01*
X82208668Y-188091689D01*
X82597576Y-187702781D01*
X83658236Y-188763441D01*
X83658236Y-188763441D01*
G37*
G36*
X83092551Y-189329126D02*
X82703643Y-189718034D01*
X81642983Y-188657374D01*
X82031891Y-188268466D01*
X83092551Y-189329126D01*
X83092551Y-189329126D01*
G37*
G36*
X82526866Y-189894812D02*
X82137958Y-190283720D01*
X81077298Y-189223060D01*
X81466206Y-188834152D01*
X82526866Y-189894812D01*
X82526866Y-189894812D01*
G37*
G36*
X79733794Y-188834152D02*
X80122702Y-189223060D01*
X79062042Y-190283720D01*
X78673134Y-189894812D01*
X79733794Y-188834152D01*
X79733794Y-188834152D01*
G37*
G36*
X79168109Y-188268466D02*
X79557017Y-188657374D01*
X78496357Y-189718034D01*
X78107449Y-189329126D01*
X79168109Y-188268466D01*
X79168109Y-188268466D01*
G37*
G36*
X78602424Y-187702781D02*
X78991332Y-188091689D01*
X77930672Y-189152349D01*
X77541764Y-188763441D01*
X78602424Y-187702781D01*
X78602424Y-187702781D01*
G37*
G36*
X78036738Y-187137096D02*
X78425646Y-187526004D01*
X77364986Y-188586664D01*
X76976078Y-188197756D01*
X78036738Y-187137096D01*
X78036738Y-187137096D01*
G37*
G36*
X77471053Y-186571410D02*
X77859961Y-186960318D01*
X76799301Y-188020978D01*
X76410393Y-187632070D01*
X77471053Y-186571410D01*
X77471053Y-186571410D01*
G37*
G36*
X76905367Y-186005725D02*
X77294275Y-186394633D01*
X76233615Y-187455293D01*
X75844707Y-187066385D01*
X76905367Y-186005725D01*
X76905367Y-186005725D01*
G37*
G36*
X76339682Y-185440039D02*
X76728590Y-185828947D01*
X75667930Y-186889607D01*
X75279022Y-186500699D01*
X76339682Y-185440039D01*
X76339682Y-185440039D01*
G37*
G36*
X75773996Y-184874354D02*
X76162904Y-185263262D01*
X75102244Y-186323922D01*
X74713336Y-185935014D01*
X75773996Y-184874354D01*
X75773996Y-184874354D01*
G37*
G36*
X75208311Y-184308668D02*
X75597219Y-184697576D01*
X74536559Y-185758236D01*
X74147651Y-185369328D01*
X75208311Y-184308668D01*
X75208311Y-184308668D01*
G37*
G36*
X74642626Y-183742983D02*
X75031534Y-184131891D01*
X73970874Y-185192551D01*
X73581966Y-184803643D01*
X74642626Y-183742983D01*
X74642626Y-183742983D01*
G37*
G36*
X74076940Y-183177298D02*
X74465848Y-183566206D01*
X73405188Y-184626866D01*
X73016280Y-184237958D01*
X74076940Y-183177298D01*
X74076940Y-183177298D01*
G37*
G36*
X74465848Y-181833794D02*
X74076940Y-182222702D01*
X73016280Y-181162042D01*
X73405188Y-180773134D01*
X74465848Y-181833794D01*
X74465848Y-181833794D01*
G37*
G36*
X75031534Y-181268109D02*
X74642626Y-181657017D01*
X73581966Y-180596357D01*
X73970874Y-180207449D01*
X75031534Y-181268109D01*
X75031534Y-181268109D01*
G37*
G36*
X75597219Y-180702424D02*
X75208311Y-181091332D01*
X74147651Y-180030672D01*
X74536559Y-179641764D01*
X75597219Y-180702424D01*
X75597219Y-180702424D01*
G37*
G36*
X76162904Y-180136738D02*
X75773996Y-180525646D01*
X74713336Y-179464986D01*
X75102244Y-179076078D01*
X76162904Y-180136738D01*
X76162904Y-180136738D01*
G37*
G36*
X76728590Y-179571053D02*
X76339682Y-179959961D01*
X75279022Y-178899301D01*
X75667930Y-178510393D01*
X76728590Y-179571053D01*
X76728590Y-179571053D01*
G37*
G36*
X77294275Y-179005367D02*
X76905367Y-179394275D01*
X75844707Y-178333615D01*
X76233615Y-177944707D01*
X77294275Y-179005367D01*
X77294275Y-179005367D01*
G37*
G36*
X77859961Y-178439682D02*
X77471053Y-178828590D01*
X76410393Y-177767930D01*
X76799301Y-177379022D01*
X77859961Y-178439682D01*
X77859961Y-178439682D01*
G37*
G36*
X78425646Y-177873996D02*
X78036738Y-178262904D01*
X76976078Y-177202244D01*
X77364986Y-176813336D01*
X78425646Y-177873996D01*
X78425646Y-177873996D01*
G37*
G36*
X78991332Y-177308311D02*
X78602424Y-177697219D01*
X77541764Y-176636559D01*
X77930672Y-176247651D01*
X78991332Y-177308311D01*
X78991332Y-177308311D01*
G37*
G36*
X79557017Y-176742626D02*
X79168109Y-177131534D01*
X78107449Y-176070874D01*
X78496357Y-175681966D01*
X79557017Y-176742626D01*
X79557017Y-176742626D01*
G37*
G36*
X80122702Y-176176940D02*
X79733794Y-176565848D01*
X78673134Y-175505188D01*
X79062042Y-175116280D01*
X80122702Y-176176940D01*
X80122702Y-176176940D01*
G37*
D11*
X100050000Y-181550000D03*
X97550000Y-181550000D03*
D12*
X91750000Y-188450000D03*
X91750000Y-185950000D03*
D11*
X71500000Y-136750000D03*
X69000000Y-136750000D03*
X71500000Y-133000000D03*
X69000000Y-133000000D03*
X71500000Y-129250000D03*
X69000000Y-129250000D03*
X71500000Y-125250000D03*
X69000000Y-125250000D03*
X71500000Y-121250000D03*
X69000000Y-121250000D03*
D12*
X92000000Y-172000000D03*
X92000000Y-169500000D03*
D13*
X90900000Y-152500000D03*
X93600000Y-152500000D03*
X70400000Y-167500000D03*
X73100000Y-167500000D03*
D10*
G36*
X103974695Y-159144543D02*
X103055457Y-158225305D01*
X104116117Y-157164645D01*
X105035355Y-158083883D01*
X103974695Y-159144543D01*
X103974695Y-159144543D01*
G37*
G36*
X105883883Y-157235355D02*
X104964645Y-156316117D01*
X106025305Y-155255457D01*
X106944543Y-156174695D01*
X105883883Y-157235355D01*
X105883883Y-157235355D01*
G37*
G36*
X109825305Y-159055457D02*
X110744543Y-159974695D01*
X109683883Y-161035355D01*
X108764645Y-160116117D01*
X109825305Y-159055457D01*
X109825305Y-159055457D01*
G37*
G36*
X107916117Y-160964645D02*
X108835355Y-161883883D01*
X107774695Y-162944543D01*
X106855457Y-162025305D01*
X107916117Y-160964645D01*
X107916117Y-160964645D01*
G37*
D14*
X97150000Y-148650000D03*
X97150000Y-142350000D03*
X93350000Y-148650000D03*
X93350000Y-142350000D03*
D10*
G36*
X94531192Y-186081802D02*
X95379720Y-185233274D01*
X96369670Y-186223224D01*
X95521142Y-187071752D01*
X94531192Y-186081802D01*
X94531192Y-186081802D01*
G37*
G36*
X96228248Y-187778858D02*
X97076776Y-186930330D01*
X98066726Y-187920280D01*
X97218198Y-188768808D01*
X96228248Y-187778858D01*
X96228248Y-187778858D01*
G37*
G36*
X95733274Y-184879720D02*
X96581802Y-184031192D01*
X97571752Y-185021142D01*
X96723224Y-185869670D01*
X95733274Y-184879720D01*
X95733274Y-184879720D01*
G37*
G36*
X97430330Y-186576776D02*
X98278858Y-185728248D01*
X99268808Y-186718198D01*
X98420280Y-187566726D01*
X97430330Y-186576776D01*
X97430330Y-186576776D01*
G37*
D15*
X71500000Y-117850000D03*
X71500000Y-115150000D03*
X84000000Y-156600000D03*
X84000000Y-153900000D03*
D16*
X83650000Y-104500000D03*
X84450000Y-104500000D03*
X85250000Y-104500000D03*
X86050000Y-104500000D03*
X86850000Y-104500000D03*
D17*
X81600000Y-102100000D03*
X88900000Y-102100000D03*
D18*
X344500000Y-123000000D03*
X347900000Y-123000000D03*
D19*
X333375000Y-107837500D03*
X333375000Y-111237500D03*
D18*
X346200000Y-112500000D03*
X342800000Y-112500000D03*
X320500000Y-181400000D03*
X323900000Y-181400000D03*
X266700000Y-181000000D03*
X263300000Y-181000000D03*
D19*
X224750000Y-184300000D03*
X224750000Y-187700000D03*
X143000000Y-182800000D03*
X143000000Y-186200000D03*
X119000000Y-183300000D03*
X119000000Y-186700000D03*
D18*
X325950000Y-172250000D03*
X322550000Y-172250000D03*
D19*
X319500000Y-168800000D03*
X319500000Y-172200000D03*
X300037500Y-164987500D03*
X300037500Y-168387500D03*
X280987500Y-164987500D03*
X280987500Y-168387500D03*
X261937500Y-164987500D03*
X261937500Y-168387500D03*
X242887500Y-164987500D03*
X242887500Y-168387500D03*
X223837500Y-164987500D03*
X223837500Y-168387500D03*
X204787500Y-164987500D03*
X204787500Y-168387500D03*
X185737500Y-164987500D03*
X185737500Y-168387500D03*
X166687500Y-164987500D03*
X166687500Y-168387500D03*
X147637500Y-164987500D03*
X147637500Y-168387500D03*
X128587500Y-164987500D03*
X128587500Y-168387500D03*
X102393750Y-164987500D03*
X102393750Y-168387500D03*
X339750000Y-144050000D03*
X339750000Y-147450000D03*
X309562500Y-145937500D03*
X309562500Y-149337500D03*
X290512500Y-145937500D03*
X290512500Y-149337500D03*
X271462500Y-145937500D03*
X271462500Y-149337500D03*
X252412500Y-145937500D03*
X252412500Y-149337500D03*
X233362500Y-145937500D03*
X233362500Y-149337500D03*
X214312500Y-145937500D03*
X214312500Y-149337500D03*
D18*
X186700000Y-150000000D03*
X183300000Y-150000000D03*
D19*
X176212500Y-145937500D03*
X176212500Y-149337500D03*
X157162500Y-145937500D03*
X157162500Y-149337500D03*
X138112500Y-145937500D03*
X138112500Y-149337500D03*
X119000000Y-145800000D03*
X119000000Y-149200000D03*
D18*
X94800000Y-137750000D03*
X98200000Y-137750000D03*
D19*
X321750000Y-129300000D03*
X321750000Y-132700000D03*
X304750000Y-129300000D03*
X304750000Y-132700000D03*
X286000000Y-129300000D03*
X286000000Y-132700000D03*
X266500000Y-129300000D03*
X266500000Y-132700000D03*
X247750000Y-129300000D03*
X247750000Y-132700000D03*
X228500000Y-129300000D03*
X228500000Y-132700000D03*
X209750000Y-129300000D03*
X209750000Y-132700000D03*
X190500000Y-129300000D03*
X190500000Y-132700000D03*
X171500000Y-129300000D03*
X171500000Y-132700000D03*
X152250000Y-129300000D03*
X152250000Y-132700000D03*
X133500000Y-129300000D03*
X133500000Y-132700000D03*
X114250000Y-129300000D03*
X114250000Y-132700000D03*
D18*
X94550000Y-132750000D03*
X97950000Y-132750000D03*
D19*
X314325000Y-107837500D03*
X314325000Y-111237500D03*
X295275000Y-107837500D03*
X295275000Y-111237500D03*
X276225000Y-107837500D03*
X276225000Y-111237500D03*
X257175000Y-107837500D03*
X257175000Y-111237500D03*
X238125000Y-107837500D03*
X238125000Y-111237500D03*
X219075000Y-107837500D03*
X219075000Y-111237500D03*
X200025000Y-107837500D03*
X200025000Y-111237500D03*
X161925000Y-107837500D03*
X161925000Y-111237500D03*
X142875000Y-107837500D03*
X142875000Y-111237500D03*
X123825000Y-107837500D03*
X123825000Y-111237500D03*
X104500000Y-107800000D03*
X104500000Y-111200000D03*
D18*
X83050000Y-115750000D03*
X86450000Y-115750000D03*
D19*
X180975000Y-107837500D03*
X180975000Y-111237500D03*
M02*
