G04 #@! TF.FileFunction,Legend,Top*
%FSLAX46Y46*%
G04 Gerber Fmt 4.6, Leading zero omitted, Abs format (unit mm)*
G04 Created by KiCad (PCBNEW 4.0.5+dfsg1-4) date Wed May 24 11:01:59 2017*
%MOMM*%
%LPD*%
G01*
G04 APERTURE LIST*
%ADD10C,0.100000*%
%ADD11C,0.381000*%
%ADD12C,0.010000*%
%ADD13C,0.120000*%
G04 APERTURE END LIST*
D10*
D11*
X103441500Y-174974250D02*
X103441500Y-156305250D01*
X103441500Y-156305250D02*
X96583500Y-156305250D01*
X96583500Y-156305250D02*
X96583500Y-174974250D01*
X96583500Y-174974250D02*
X103441500Y-174974250D01*
X79629000Y-174974250D02*
X79629000Y-156305250D01*
X79629000Y-156305250D02*
X72771000Y-156305250D01*
X72771000Y-156305250D02*
X72771000Y-174974250D01*
X72771000Y-174974250D02*
X79629000Y-174974250D01*
D12*
G36*
X171048331Y-188593509D02*
X171223023Y-188597268D01*
X171340016Y-188603774D01*
X171374293Y-188608597D01*
X171448214Y-188648211D01*
X171562449Y-188733785D01*
X171698250Y-188850618D01*
X171776459Y-188923956D01*
X172015138Y-189133789D01*
X172278997Y-189330303D01*
X172545442Y-189498587D01*
X172791879Y-189623726D01*
X172899185Y-189665009D01*
X173155673Y-189789330D01*
X173358991Y-189966282D01*
X173505149Y-190182592D01*
X173590161Y-190424987D01*
X173610039Y-190680191D01*
X173560795Y-190934931D01*
X173438441Y-191175935D01*
X173376952Y-191255350D01*
X173166555Y-191439768D01*
X172918769Y-191554588D01*
X172648074Y-191597133D01*
X172368946Y-191564726D01*
X172148267Y-191482523D01*
X172008592Y-191402162D01*
X171897234Y-191307421D01*
X171801076Y-191181300D01*
X171707005Y-191006804D01*
X171608604Y-190783103D01*
X171508572Y-190555201D01*
X171456917Y-190453082D01*
X171930174Y-190453082D01*
X171932047Y-190574765D01*
X171938732Y-190673338D01*
X171952624Y-190831567D01*
X171974867Y-190933719D01*
X172018328Y-191008262D01*
X172095876Y-191083665D01*
X172141748Y-191122474D01*
X172346107Y-191264506D01*
X172537084Y-191330041D01*
X172731334Y-191321741D01*
X172932184Y-191248806D01*
X173128164Y-191114036D01*
X173258098Y-190941064D01*
X173322427Y-190744108D01*
X173321592Y-190537386D01*
X173256035Y-190335116D01*
X173126197Y-190151515D01*
X172932519Y-190000801D01*
X172892769Y-189979213D01*
X172681196Y-189910517D01*
X172474950Y-189925083D01*
X172272272Y-190023383D01*
X172077992Y-190198553D01*
X171994506Y-190294432D01*
X171948114Y-190369456D01*
X171930174Y-190453082D01*
X171456917Y-190453082D01*
X171404518Y-190349495D01*
X171287577Y-190153847D01*
X171148887Y-189956117D01*
X170979584Y-189744167D01*
X170770804Y-189505858D01*
X170513686Y-189229053D01*
X170344606Y-189052000D01*
X169917166Y-188607500D01*
X170594500Y-188595398D01*
X170833103Y-188592789D01*
X171048331Y-188593509D01*
X171048331Y-188593509D01*
G37*
X171048331Y-188593509D02*
X171223023Y-188597268D01*
X171340016Y-188603774D01*
X171374293Y-188608597D01*
X171448214Y-188648211D01*
X171562449Y-188733785D01*
X171698250Y-188850618D01*
X171776459Y-188923956D01*
X172015138Y-189133789D01*
X172278997Y-189330303D01*
X172545442Y-189498587D01*
X172791879Y-189623726D01*
X172899185Y-189665009D01*
X173155673Y-189789330D01*
X173358991Y-189966282D01*
X173505149Y-190182592D01*
X173590161Y-190424987D01*
X173610039Y-190680191D01*
X173560795Y-190934931D01*
X173438441Y-191175935D01*
X173376952Y-191255350D01*
X173166555Y-191439768D01*
X172918769Y-191554588D01*
X172648074Y-191597133D01*
X172368946Y-191564726D01*
X172148267Y-191482523D01*
X172008592Y-191402162D01*
X171897234Y-191307421D01*
X171801076Y-191181300D01*
X171707005Y-191006804D01*
X171608604Y-190783103D01*
X171508572Y-190555201D01*
X171456917Y-190453082D01*
X171930174Y-190453082D01*
X171932047Y-190574765D01*
X171938732Y-190673338D01*
X171952624Y-190831567D01*
X171974867Y-190933719D01*
X172018328Y-191008262D01*
X172095876Y-191083665D01*
X172141748Y-191122474D01*
X172346107Y-191264506D01*
X172537084Y-191330041D01*
X172731334Y-191321741D01*
X172932184Y-191248806D01*
X173128164Y-191114036D01*
X173258098Y-190941064D01*
X173322427Y-190744108D01*
X173321592Y-190537386D01*
X173256035Y-190335116D01*
X173126197Y-190151515D01*
X172932519Y-190000801D01*
X172892769Y-189979213D01*
X172681196Y-189910517D01*
X172474950Y-189925083D01*
X172272272Y-190023383D01*
X172077992Y-190198553D01*
X171994506Y-190294432D01*
X171948114Y-190369456D01*
X171930174Y-190453082D01*
X171456917Y-190453082D01*
X171404518Y-190349495D01*
X171287577Y-190153847D01*
X171148887Y-189956117D01*
X170979584Y-189744167D01*
X170770804Y-189505858D01*
X170513686Y-189229053D01*
X170344606Y-189052000D01*
X169917166Y-188607500D01*
X170594500Y-188595398D01*
X170833103Y-188592789D01*
X171048331Y-188593509D01*
G36*
X167409701Y-188469950D02*
X167432070Y-188479456D01*
X167420911Y-188520388D01*
X167380676Y-188620683D01*
X167318485Y-188763164D01*
X167273230Y-188862546D01*
X167120988Y-189221116D01*
X166997422Y-189571335D01*
X166909564Y-189891423D01*
X166869525Y-190112682D01*
X166862062Y-190383275D01*
X166918267Y-190610788D01*
X167044719Y-190814665D01*
X167142594Y-190919907D01*
X167396774Y-191109368D01*
X167692913Y-191234358D01*
X168015979Y-191293023D01*
X168350939Y-191283506D01*
X168682764Y-191203953D01*
X168855138Y-191131325D01*
X169171909Y-190933218D01*
X169480428Y-190657573D01*
X169774460Y-190311496D01*
X170047768Y-189902089D01*
X170234274Y-189560000D01*
X170312714Y-189403486D01*
X170363601Y-189311002D01*
X170398326Y-189271398D01*
X170428278Y-189273523D01*
X170464848Y-189306229D01*
X170478956Y-189320480D01*
X170510319Y-189358817D01*
X170519777Y-189403349D01*
X170502960Y-189470938D01*
X170455499Y-189578444D01*
X170373027Y-189742730D01*
X170366004Y-189756451D01*
X170081415Y-190245361D01*
X169766856Y-190660219D01*
X169424350Y-190998814D01*
X169055920Y-191258938D01*
X168928057Y-191327647D01*
X168763750Y-191404955D01*
X168629388Y-191452817D01*
X168491147Y-191479402D01*
X168315202Y-191492877D01*
X168229557Y-191496325D01*
X168014180Y-191499089D01*
X167848138Y-191486698D01*
X167696786Y-191454761D01*
X167561579Y-191411693D01*
X167245812Y-191274423D01*
X167004379Y-191106091D01*
X166830387Y-190899525D01*
X166716942Y-190647552D01*
X166679031Y-190493255D01*
X166661116Y-190223740D01*
X166696394Y-189903183D01*
X166781923Y-189543925D01*
X166914759Y-189158307D01*
X167091959Y-188758667D01*
X167093439Y-188755666D01*
X167176925Y-188595017D01*
X167239082Y-188499863D01*
X167290281Y-188457191D01*
X167334833Y-188452774D01*
X167409701Y-188469950D01*
X167409701Y-188469950D01*
G37*
X167409701Y-188469950D02*
X167432070Y-188479456D01*
X167420911Y-188520388D01*
X167380676Y-188620683D01*
X167318485Y-188763164D01*
X167273230Y-188862546D01*
X167120988Y-189221116D01*
X166997422Y-189571335D01*
X166909564Y-189891423D01*
X166869525Y-190112682D01*
X166862062Y-190383275D01*
X166918267Y-190610788D01*
X167044719Y-190814665D01*
X167142594Y-190919907D01*
X167396774Y-191109368D01*
X167692913Y-191234358D01*
X168015979Y-191293023D01*
X168350939Y-191283506D01*
X168682764Y-191203953D01*
X168855138Y-191131325D01*
X169171909Y-190933218D01*
X169480428Y-190657573D01*
X169774460Y-190311496D01*
X170047768Y-189902089D01*
X170234274Y-189560000D01*
X170312714Y-189403486D01*
X170363601Y-189311002D01*
X170398326Y-189271398D01*
X170428278Y-189273523D01*
X170464848Y-189306229D01*
X170478956Y-189320480D01*
X170510319Y-189358817D01*
X170519777Y-189403349D01*
X170502960Y-189470938D01*
X170455499Y-189578444D01*
X170373027Y-189742730D01*
X170366004Y-189756451D01*
X170081415Y-190245361D01*
X169766856Y-190660219D01*
X169424350Y-190998814D01*
X169055920Y-191258938D01*
X168928057Y-191327647D01*
X168763750Y-191404955D01*
X168629388Y-191452817D01*
X168491147Y-191479402D01*
X168315202Y-191492877D01*
X168229557Y-191496325D01*
X168014180Y-191499089D01*
X167848138Y-191486698D01*
X167696786Y-191454761D01*
X167561579Y-191411693D01*
X167245812Y-191274423D01*
X167004379Y-191106091D01*
X166830387Y-190899525D01*
X166716942Y-190647552D01*
X166679031Y-190493255D01*
X166661116Y-190223740D01*
X166696394Y-189903183D01*
X166781923Y-189543925D01*
X166914759Y-189158307D01*
X167091959Y-188758667D01*
X167093439Y-188755666D01*
X167176925Y-188595017D01*
X167239082Y-188499863D01*
X167290281Y-188457191D01*
X167334833Y-188452774D01*
X167409701Y-188469950D01*
G36*
X165207241Y-184359762D02*
X165441426Y-184365532D01*
X165625455Y-184375815D01*
X165767952Y-184391404D01*
X165877543Y-184413092D01*
X165962852Y-184441669D01*
X166032505Y-184477929D01*
X166095126Y-184522663D01*
X166123384Y-184545831D01*
X166192026Y-184607968D01*
X166247547Y-184673242D01*
X166291226Y-184750859D01*
X166324342Y-184850028D01*
X166348175Y-184979956D01*
X166364005Y-185149850D01*
X166373110Y-185368917D01*
X166376769Y-185646365D01*
X166376263Y-185991402D01*
X166373501Y-186345958D01*
X166361166Y-187682533D01*
X166248527Y-187852650D01*
X166194549Y-187932019D01*
X166141940Y-187997575D01*
X166082392Y-188050707D01*
X166007597Y-188092805D01*
X165909247Y-188125260D01*
X165779033Y-188149461D01*
X165608647Y-188166800D01*
X165389782Y-188178667D01*
X165114127Y-188186451D01*
X164773376Y-188191543D01*
X164359220Y-188195333D01*
X164192861Y-188196629D01*
X162574889Y-188209092D01*
X162551269Y-188111962D01*
X162546533Y-188050015D01*
X162542655Y-187912674D01*
X162539692Y-187709205D01*
X162537702Y-187448878D01*
X162536741Y-187140959D01*
X162536868Y-186794718D01*
X162538139Y-186419421D01*
X162539407Y-186194500D01*
X162545823Y-185201279D01*
X163376666Y-185201279D01*
X163376666Y-186251750D01*
X163377787Y-186541879D01*
X163380939Y-186803625D01*
X163385805Y-187025190D01*
X163392069Y-187194775D01*
X163399415Y-187300581D01*
X163405611Y-187331167D01*
X163454280Y-187338726D01*
X163575742Y-187344636D01*
X163758138Y-187348703D01*
X163989607Y-187350729D01*
X164258288Y-187350520D01*
X164474528Y-187348805D01*
X165514500Y-187337500D01*
X165514500Y-185178500D01*
X164540833Y-185166556D01*
X164256975Y-185164111D01*
X163997286Y-185163834D01*
X163775174Y-185165580D01*
X163604042Y-185169207D01*
X163497297Y-185174573D01*
X163471916Y-185177946D01*
X163376666Y-185201279D01*
X162545823Y-185201279D01*
X162551166Y-184374166D01*
X164117500Y-184361616D01*
X164553903Y-184358596D01*
X164914275Y-184357715D01*
X165207241Y-184359762D01*
X165207241Y-184359762D01*
G37*
X165207241Y-184359762D02*
X165441426Y-184365532D01*
X165625455Y-184375815D01*
X165767952Y-184391404D01*
X165877543Y-184413092D01*
X165962852Y-184441669D01*
X166032505Y-184477929D01*
X166095126Y-184522663D01*
X166123384Y-184545831D01*
X166192026Y-184607968D01*
X166247547Y-184673242D01*
X166291226Y-184750859D01*
X166324342Y-184850028D01*
X166348175Y-184979956D01*
X166364005Y-185149850D01*
X166373110Y-185368917D01*
X166376769Y-185646365D01*
X166376263Y-185991402D01*
X166373501Y-186345958D01*
X166361166Y-187682533D01*
X166248527Y-187852650D01*
X166194549Y-187932019D01*
X166141940Y-187997575D01*
X166082392Y-188050707D01*
X166007597Y-188092805D01*
X165909247Y-188125260D01*
X165779033Y-188149461D01*
X165608647Y-188166800D01*
X165389782Y-188178667D01*
X165114127Y-188186451D01*
X164773376Y-188191543D01*
X164359220Y-188195333D01*
X164192861Y-188196629D01*
X162574889Y-188209092D01*
X162551269Y-188111962D01*
X162546533Y-188050015D01*
X162542655Y-187912674D01*
X162539692Y-187709205D01*
X162537702Y-187448878D01*
X162536741Y-187140959D01*
X162536868Y-186794718D01*
X162538139Y-186419421D01*
X162539407Y-186194500D01*
X162545823Y-185201279D01*
X163376666Y-185201279D01*
X163376666Y-186251750D01*
X163377787Y-186541879D01*
X163380939Y-186803625D01*
X163385805Y-187025190D01*
X163392069Y-187194775D01*
X163399415Y-187300581D01*
X163405611Y-187331167D01*
X163454280Y-187338726D01*
X163575742Y-187344636D01*
X163758138Y-187348703D01*
X163989607Y-187350729D01*
X164258288Y-187350520D01*
X164474528Y-187348805D01*
X165514500Y-187337500D01*
X165514500Y-185178500D01*
X164540833Y-185166556D01*
X164256975Y-185164111D01*
X163997286Y-185163834D01*
X163775174Y-185165580D01*
X163604042Y-185169207D01*
X163497297Y-185174573D01*
X163471916Y-185177946D01*
X163376666Y-185201279D01*
X162545823Y-185201279D01*
X162551166Y-184374166D01*
X164117500Y-184361616D01*
X164553903Y-184358596D01*
X164914275Y-184357715D01*
X165207241Y-184359762D01*
G36*
X169723693Y-185199666D02*
X169913708Y-185352273D01*
X170010061Y-185493243D01*
X170038323Y-185548856D01*
X170060513Y-185602904D01*
X170077262Y-185665746D01*
X170089201Y-185747741D01*
X170096960Y-185859246D01*
X170101169Y-186010619D01*
X170102461Y-186212220D01*
X170101465Y-186474406D01*
X170098812Y-186807537D01*
X170097701Y-186932576D01*
X170086500Y-188184166D01*
X168858833Y-188193220D01*
X168475320Y-188195099D01*
X168167572Y-188194268D01*
X167926721Y-188190415D01*
X167743900Y-188183229D01*
X167610240Y-188172397D01*
X167516875Y-188157607D01*
X167469614Y-188144328D01*
X167278008Y-188048866D01*
X167136963Y-187908684D01*
X167055161Y-187773103D01*
X167024645Y-187702848D01*
X167002855Y-187620632D01*
X166988394Y-187511513D01*
X166979865Y-187360552D01*
X166976416Y-187181058D01*
X167780808Y-187181058D01*
X167789189Y-187283800D01*
X167808520Y-187331409D01*
X167858508Y-187340365D01*
X167978672Y-187346849D01*
X168154549Y-187350521D01*
X168371674Y-187351041D01*
X168559937Y-187349048D01*
X169282166Y-187337500D01*
X169282166Y-186956500D01*
X168565651Y-186944859D01*
X168285153Y-186941931D01*
X168079593Y-186943944D01*
X167939358Y-186951441D01*
X167854832Y-186964963D01*
X167816403Y-186985052D01*
X167814883Y-186987192D01*
X167789623Y-187068623D01*
X167780808Y-187181058D01*
X166976416Y-187181058D01*
X166975872Y-187152807D01*
X166975000Y-186915853D01*
X166975000Y-186215666D01*
X168091649Y-186215666D01*
X168433827Y-186215105D01*
X168701017Y-186213053D01*
X168902892Y-186208957D01*
X169049125Y-186202264D01*
X169149390Y-186192420D01*
X169213359Y-186178872D01*
X169250707Y-186161068D01*
X169263944Y-186148618D01*
X169296716Y-186067170D01*
X169275142Y-186011034D01*
X169253255Y-185989383D01*
X169211520Y-185972092D01*
X169140296Y-185958400D01*
X169029943Y-185947547D01*
X168870818Y-185938771D01*
X168653282Y-185931312D01*
X168367692Y-185924408D01*
X168113431Y-185919333D01*
X166996166Y-185898166D01*
X166996166Y-185093833D01*
X169536166Y-185093833D01*
X169723693Y-185199666D01*
X169723693Y-185199666D01*
G37*
X169723693Y-185199666D02*
X169913708Y-185352273D01*
X170010061Y-185493243D01*
X170038323Y-185548856D01*
X170060513Y-185602904D01*
X170077262Y-185665746D01*
X170089201Y-185747741D01*
X170096960Y-185859246D01*
X170101169Y-186010619D01*
X170102461Y-186212220D01*
X170101465Y-186474406D01*
X170098812Y-186807537D01*
X170097701Y-186932576D01*
X170086500Y-188184166D01*
X168858833Y-188193220D01*
X168475320Y-188195099D01*
X168167572Y-188194268D01*
X167926721Y-188190415D01*
X167743900Y-188183229D01*
X167610240Y-188172397D01*
X167516875Y-188157607D01*
X167469614Y-188144328D01*
X167278008Y-188048866D01*
X167136963Y-187908684D01*
X167055161Y-187773103D01*
X167024645Y-187702848D01*
X167002855Y-187620632D01*
X166988394Y-187511513D01*
X166979865Y-187360552D01*
X166976416Y-187181058D01*
X167780808Y-187181058D01*
X167789189Y-187283800D01*
X167808520Y-187331409D01*
X167858508Y-187340365D01*
X167978672Y-187346849D01*
X168154549Y-187350521D01*
X168371674Y-187351041D01*
X168559937Y-187349048D01*
X169282166Y-187337500D01*
X169282166Y-186956500D01*
X168565651Y-186944859D01*
X168285153Y-186941931D01*
X168079593Y-186943944D01*
X167939358Y-186951441D01*
X167854832Y-186964963D01*
X167816403Y-186985052D01*
X167814883Y-186987192D01*
X167789623Y-187068623D01*
X167780808Y-187181058D01*
X166976416Y-187181058D01*
X166975872Y-187152807D01*
X166975000Y-186915853D01*
X166975000Y-186215666D01*
X168091649Y-186215666D01*
X168433827Y-186215105D01*
X168701017Y-186213053D01*
X168902892Y-186208957D01*
X169049125Y-186202264D01*
X169149390Y-186192420D01*
X169213359Y-186178872D01*
X169250707Y-186161068D01*
X169263944Y-186148618D01*
X169296716Y-186067170D01*
X169275142Y-186011034D01*
X169253255Y-185989383D01*
X169211520Y-185972092D01*
X169140296Y-185958400D01*
X169029943Y-185947547D01*
X168870818Y-185938771D01*
X168653282Y-185931312D01*
X168367692Y-185924408D01*
X168113431Y-185919333D01*
X166996166Y-185898166D01*
X166996166Y-185093833D01*
X169536166Y-185093833D01*
X169723693Y-185199666D01*
G36*
X172728622Y-185078181D02*
X172846368Y-185085534D01*
X172921642Y-185097718D01*
X172964983Y-185115265D01*
X172980041Y-185128585D01*
X173009994Y-185216638D01*
X173021962Y-185386220D01*
X173019861Y-185544813D01*
X173007500Y-185898166D01*
X171356500Y-185940500D01*
X171314166Y-188184166D01*
X170531000Y-188208510D01*
X170531000Y-186943580D01*
X170531180Y-186582742D01*
X170532185Y-186296271D01*
X170534712Y-186073866D01*
X170539458Y-185905228D01*
X170547120Y-185780056D01*
X170558395Y-185688052D01*
X170573980Y-185618913D01*
X170594572Y-185562342D01*
X170620868Y-185508037D01*
X170629222Y-185492075D01*
X170776253Y-185299803D01*
X170914972Y-185199666D01*
X170980108Y-185164709D01*
X171043556Y-185138199D01*
X171118122Y-185118741D01*
X171216613Y-185104939D01*
X171351833Y-185095397D01*
X171536589Y-185088721D01*
X171783688Y-185083514D01*
X172015179Y-185079771D01*
X172323566Y-185075833D01*
X172557868Y-185075125D01*
X172728622Y-185078181D01*
X172728622Y-185078181D01*
G37*
X172728622Y-185078181D02*
X172846368Y-185085534D01*
X172921642Y-185097718D01*
X172964983Y-185115265D01*
X172980041Y-185128585D01*
X173009994Y-185216638D01*
X173021962Y-185386220D01*
X173019861Y-185544813D01*
X173007500Y-185898166D01*
X171356500Y-185940500D01*
X171314166Y-188184166D01*
X170531000Y-188208510D01*
X170531000Y-186943580D01*
X170531180Y-186582742D01*
X170532185Y-186296271D01*
X170534712Y-186073866D01*
X170539458Y-185905228D01*
X170547120Y-185780056D01*
X170558395Y-185688052D01*
X170573980Y-185618913D01*
X170594572Y-185562342D01*
X170620868Y-185508037D01*
X170629222Y-185492075D01*
X170776253Y-185299803D01*
X170914972Y-185199666D01*
X170980108Y-185164709D01*
X171043556Y-185138199D01*
X171118122Y-185118741D01*
X171216613Y-185104939D01*
X171351833Y-185095397D01*
X171536589Y-185088721D01*
X171783688Y-185083514D01*
X172015179Y-185079771D01*
X172323566Y-185075833D01*
X172557868Y-185075125D01*
X172728622Y-185078181D01*
G36*
X177050333Y-184515331D02*
X177045516Y-184578578D01*
X177026205Y-184643812D01*
X176985108Y-184722042D01*
X176914934Y-184824275D01*
X176808392Y-184961521D01*
X176658192Y-185144788D01*
X176538635Y-185287914D01*
X176365305Y-185494711D01*
X176199899Y-185692205D01*
X176054425Y-185866048D01*
X175940889Y-186001892D01*
X175877327Y-186078134D01*
X175793128Y-186185726D01*
X175759075Y-186253954D01*
X175767148Y-186304975D01*
X175785388Y-186332134D01*
X175829757Y-186386758D01*
X175919038Y-186494870D01*
X176043758Y-186645066D01*
X176194447Y-186825941D01*
X176361633Y-187026092D01*
X176374242Y-187041166D01*
X176590242Y-187299669D01*
X176757940Y-187501777D01*
X176883446Y-187655964D01*
X176972871Y-187770700D01*
X177032325Y-187854457D01*
X177067919Y-187915708D01*
X177085765Y-187962924D01*
X177091972Y-188004578D01*
X177092666Y-188037179D01*
X177084808Y-188108408D01*
X177052088Y-188156292D01*
X176980787Y-188185351D01*
X176857186Y-188200104D01*
X176667565Y-188205070D01*
X176582188Y-188205333D01*
X176205634Y-188205333D01*
X175578661Y-187453916D01*
X174951688Y-186702500D01*
X174235166Y-186702500D01*
X174214000Y-187443333D01*
X174192833Y-188184166D01*
X173800534Y-188196348D01*
X173599338Y-188199018D01*
X173470775Y-188191252D01*
X173403321Y-188171869D01*
X173387324Y-188154014D01*
X173383199Y-188101454D01*
X173379838Y-187973110D01*
X173377286Y-187777863D01*
X173375589Y-187524594D01*
X173374793Y-187222182D01*
X173374943Y-186879509D01*
X173376085Y-186505454D01*
X173377456Y-186236833D01*
X173388500Y-184374166D01*
X174192833Y-184374166D01*
X174214000Y-185093833D01*
X174235166Y-185813500D01*
X174582322Y-185825761D01*
X174929479Y-185838023D01*
X175075816Y-185677594D01*
X175152947Y-185590081D01*
X175271037Y-185452460D01*
X175417175Y-185279942D01*
X175578448Y-185087736D01*
X175679147Y-184966833D01*
X175833227Y-184782551D01*
X175970520Y-184620727D01*
X176081126Y-184492844D01*
X176155139Y-184410387D01*
X176180487Y-184385398D01*
X176239754Y-184371981D01*
X176362839Y-184361328D01*
X176528901Y-184354886D01*
X176637583Y-184353648D01*
X177050333Y-184353000D01*
X177050333Y-184515331D01*
X177050333Y-184515331D01*
G37*
X177050333Y-184515331D02*
X177045516Y-184578578D01*
X177026205Y-184643812D01*
X176985108Y-184722042D01*
X176914934Y-184824275D01*
X176808392Y-184961521D01*
X176658192Y-185144788D01*
X176538635Y-185287914D01*
X176365305Y-185494711D01*
X176199899Y-185692205D01*
X176054425Y-185866048D01*
X175940889Y-186001892D01*
X175877327Y-186078134D01*
X175793128Y-186185726D01*
X175759075Y-186253954D01*
X175767148Y-186304975D01*
X175785388Y-186332134D01*
X175829757Y-186386758D01*
X175919038Y-186494870D01*
X176043758Y-186645066D01*
X176194447Y-186825941D01*
X176361633Y-187026092D01*
X176374242Y-187041166D01*
X176590242Y-187299669D01*
X176757940Y-187501777D01*
X176883446Y-187655964D01*
X176972871Y-187770700D01*
X177032325Y-187854457D01*
X177067919Y-187915708D01*
X177085765Y-187962924D01*
X177091972Y-188004578D01*
X177092666Y-188037179D01*
X177084808Y-188108408D01*
X177052088Y-188156292D01*
X176980787Y-188185351D01*
X176857186Y-188200104D01*
X176667565Y-188205070D01*
X176582188Y-188205333D01*
X176205634Y-188205333D01*
X175578661Y-187453916D01*
X174951688Y-186702500D01*
X174235166Y-186702500D01*
X174214000Y-187443333D01*
X174192833Y-188184166D01*
X173800534Y-188196348D01*
X173599338Y-188199018D01*
X173470775Y-188191252D01*
X173403321Y-188171869D01*
X173387324Y-188154014D01*
X173383199Y-188101454D01*
X173379838Y-187973110D01*
X173377286Y-187777863D01*
X173375589Y-187524594D01*
X173374793Y-187222182D01*
X173374943Y-186879509D01*
X173376085Y-186505454D01*
X173377456Y-186236833D01*
X173388500Y-184374166D01*
X174192833Y-184374166D01*
X174214000Y-185093833D01*
X174235166Y-185813500D01*
X174582322Y-185825761D01*
X174929479Y-185838023D01*
X175075816Y-185677594D01*
X175152947Y-185590081D01*
X175271037Y-185452460D01*
X175417175Y-185279942D01*
X175578448Y-185087736D01*
X175679147Y-184966833D01*
X175833227Y-184782551D01*
X175970520Y-184620727D01*
X176081126Y-184492844D01*
X176155139Y-184410387D01*
X176180487Y-184385398D01*
X176239754Y-184371981D01*
X176362839Y-184361328D01*
X176528901Y-184354886D01*
X176637583Y-184353648D01*
X177050333Y-184353000D01*
X177050333Y-184515331D01*
G36*
X179526433Y-185077737D02*
X179756163Y-185089146D01*
X179935329Y-185111455D01*
X180075245Y-185146546D01*
X180187224Y-185196303D01*
X180282579Y-185262609D01*
X180352456Y-185326790D01*
X180433133Y-185418520D01*
X180495666Y-185520474D01*
X180541940Y-185643932D01*
X180573840Y-185800171D01*
X180593252Y-186000472D01*
X180602060Y-186256111D01*
X180602149Y-186578369D01*
X180598927Y-186801469D01*
X180591985Y-187114781D01*
X180582012Y-187356312D01*
X180566237Y-187538944D01*
X180541888Y-187675561D01*
X180506195Y-187779048D01*
X180456385Y-187862288D01*
X180389688Y-187938166D01*
X180345194Y-187981062D01*
X180263663Y-188050611D01*
X180178583Y-188104189D01*
X180077997Y-188143766D01*
X179949947Y-188171312D01*
X179782473Y-188188794D01*
X179563618Y-188198183D01*
X179281424Y-188201449D01*
X179009609Y-188201011D01*
X178706198Y-188197466D01*
X178435598Y-188190187D01*
X178210508Y-188179776D01*
X178043629Y-188166831D01*
X177947660Y-188151952D01*
X177943308Y-188150659D01*
X177772899Y-188059943D01*
X177617606Y-187914709D01*
X177505215Y-187743757D01*
X177476113Y-187666382D01*
X177462618Y-187575923D01*
X177450755Y-187416422D01*
X177441196Y-187203501D01*
X177434608Y-186952780D01*
X177432268Y-186735996D01*
X178236771Y-186735996D01*
X178238118Y-186939088D01*
X178242437Y-187116759D01*
X178249826Y-187250954D01*
X178260383Y-187323615D01*
X178263888Y-187330444D01*
X178313496Y-187339652D01*
X178433460Y-187347602D01*
X178609470Y-187353765D01*
X178827219Y-187357612D01*
X179026912Y-187358666D01*
X179761713Y-187358666D01*
X179750106Y-186649583D01*
X179738500Y-185940500D01*
X179021985Y-185928859D01*
X178741486Y-185925931D01*
X178535927Y-185927944D01*
X178395691Y-185935441D01*
X178311166Y-185948963D01*
X178272737Y-185969052D01*
X178271216Y-185971192D01*
X178259161Y-186030544D01*
X178249591Y-186154757D01*
X178242605Y-186325774D01*
X178238299Y-186525539D01*
X178236771Y-186735996D01*
X177432268Y-186735996D01*
X177431662Y-186679879D01*
X177431569Y-186627056D01*
X177433122Y-186293034D01*
X177439402Y-186031349D01*
X177452537Y-185829715D01*
X177474657Y-185675842D01*
X177507889Y-185557443D01*
X177554363Y-185462229D01*
X177616207Y-185377912D01*
X177655603Y-185333805D01*
X177730933Y-185258586D01*
X177806750Y-185200961D01*
X177895577Y-185158314D01*
X178009936Y-185128029D01*
X178162348Y-185107490D01*
X178365334Y-185094081D01*
X178631418Y-185085186D01*
X178870028Y-185080090D01*
X179234826Y-185075346D01*
X179526433Y-185077737D01*
X179526433Y-185077737D01*
G37*
X179526433Y-185077737D02*
X179756163Y-185089146D01*
X179935329Y-185111455D01*
X180075245Y-185146546D01*
X180187224Y-185196303D01*
X180282579Y-185262609D01*
X180352456Y-185326790D01*
X180433133Y-185418520D01*
X180495666Y-185520474D01*
X180541940Y-185643932D01*
X180573840Y-185800171D01*
X180593252Y-186000472D01*
X180602060Y-186256111D01*
X180602149Y-186578369D01*
X180598927Y-186801469D01*
X180591985Y-187114781D01*
X180582012Y-187356312D01*
X180566237Y-187538944D01*
X180541888Y-187675561D01*
X180506195Y-187779048D01*
X180456385Y-187862288D01*
X180389688Y-187938166D01*
X180345194Y-187981062D01*
X180263663Y-188050611D01*
X180178583Y-188104189D01*
X180077997Y-188143766D01*
X179949947Y-188171312D01*
X179782473Y-188188794D01*
X179563618Y-188198183D01*
X179281424Y-188201449D01*
X179009609Y-188201011D01*
X178706198Y-188197466D01*
X178435598Y-188190187D01*
X178210508Y-188179776D01*
X178043629Y-188166831D01*
X177947660Y-188151952D01*
X177943308Y-188150659D01*
X177772899Y-188059943D01*
X177617606Y-187914709D01*
X177505215Y-187743757D01*
X177476113Y-187666382D01*
X177462618Y-187575923D01*
X177450755Y-187416422D01*
X177441196Y-187203501D01*
X177434608Y-186952780D01*
X177432268Y-186735996D01*
X178236771Y-186735996D01*
X178238118Y-186939088D01*
X178242437Y-187116759D01*
X178249826Y-187250954D01*
X178260383Y-187323615D01*
X178263888Y-187330444D01*
X178313496Y-187339652D01*
X178433460Y-187347602D01*
X178609470Y-187353765D01*
X178827219Y-187357612D01*
X179026912Y-187358666D01*
X179761713Y-187358666D01*
X179750106Y-186649583D01*
X179738500Y-185940500D01*
X179021985Y-185928859D01*
X178741486Y-185925931D01*
X178535927Y-185927944D01*
X178395691Y-185935441D01*
X178311166Y-185948963D01*
X178272737Y-185969052D01*
X178271216Y-185971192D01*
X178259161Y-186030544D01*
X178249591Y-186154757D01*
X178242605Y-186325774D01*
X178238299Y-186525539D01*
X178236771Y-186735996D01*
X177432268Y-186735996D01*
X177431662Y-186679879D01*
X177431569Y-186627056D01*
X177433122Y-186293034D01*
X177439402Y-186031349D01*
X177452537Y-185829715D01*
X177474657Y-185675842D01*
X177507889Y-185557443D01*
X177554363Y-185462229D01*
X177616207Y-185377912D01*
X177655603Y-185333805D01*
X177730933Y-185258586D01*
X177806750Y-185200961D01*
X177895577Y-185158314D01*
X178009936Y-185128029D01*
X178162348Y-185107490D01*
X178365334Y-185094081D01*
X178631418Y-185085186D01*
X178870028Y-185080090D01*
X179234826Y-185075346D01*
X179526433Y-185077737D01*
G36*
X181711658Y-185095251D02*
X181774602Y-185118405D01*
X181793284Y-185148381D01*
X181807785Y-185209602D01*
X181818575Y-185311112D01*
X181826122Y-185461952D01*
X181830895Y-185671168D01*
X181833362Y-185947803D01*
X181834000Y-186264183D01*
X181834000Y-187360665D01*
X182564250Y-187349082D01*
X183294500Y-187337500D01*
X183305781Y-186228881D01*
X183309610Y-185892270D01*
X183313898Y-185630740D01*
X183319365Y-185434705D01*
X183326730Y-185294579D01*
X183336714Y-185200778D01*
X183350035Y-185143715D01*
X183367413Y-185113805D01*
X183389569Y-185101462D01*
X183390447Y-185101228D01*
X183483853Y-185088243D01*
X183619998Y-185082018D01*
X183774147Y-185082019D01*
X183921566Y-185087707D01*
X184037523Y-185098546D01*
X184097284Y-185113999D01*
X184099841Y-185116631D01*
X184105726Y-185166732D01*
X184111359Y-185290518D01*
X184116503Y-185477008D01*
X184120921Y-185715218D01*
X184124376Y-185994168D01*
X184126631Y-186302876D01*
X184126937Y-186372142D01*
X184127789Y-186750315D01*
X184126275Y-187053887D01*
X184121182Y-187292916D01*
X184111299Y-187477461D01*
X184095413Y-187617579D01*
X184072314Y-187723329D01*
X184040788Y-187804768D01*
X183999624Y-187871956D01*
X183947611Y-187934949D01*
X183937263Y-187946334D01*
X183857959Y-188025004D01*
X183774102Y-188085922D01*
X183674031Y-188131265D01*
X183546082Y-188163212D01*
X183378596Y-188183940D01*
X183159909Y-188195627D01*
X182878361Y-188200451D01*
X182574833Y-188200764D01*
X182295593Y-188198430D01*
X182039126Y-188193425D01*
X181819581Y-188186254D01*
X181651106Y-188177420D01*
X181547846Y-188167430D01*
X181528834Y-188163490D01*
X181315606Y-188056619D01*
X181144467Y-187883720D01*
X181074983Y-187766996D01*
X181049412Y-187710558D01*
X181029403Y-187652217D01*
X181014390Y-187581553D01*
X181003806Y-187488144D01*
X180997084Y-187361573D01*
X180993657Y-187191417D01*
X180992958Y-186967258D01*
X180994420Y-186678675D01*
X180997266Y-186338542D01*
X181008500Y-185093833D01*
X181361852Y-185081471D01*
X181568947Y-185080946D01*
X181711658Y-185095251D01*
X181711658Y-185095251D01*
G37*
X181711658Y-185095251D02*
X181774602Y-185118405D01*
X181793284Y-185148381D01*
X181807785Y-185209602D01*
X181818575Y-185311112D01*
X181826122Y-185461952D01*
X181830895Y-185671168D01*
X181833362Y-185947803D01*
X181834000Y-186264183D01*
X181834000Y-187360665D01*
X182564250Y-187349082D01*
X183294500Y-187337500D01*
X183305781Y-186228881D01*
X183309610Y-185892270D01*
X183313898Y-185630740D01*
X183319365Y-185434705D01*
X183326730Y-185294579D01*
X183336714Y-185200778D01*
X183350035Y-185143715D01*
X183367413Y-185113805D01*
X183389569Y-185101462D01*
X183390447Y-185101228D01*
X183483853Y-185088243D01*
X183619998Y-185082018D01*
X183774147Y-185082019D01*
X183921566Y-185087707D01*
X184037523Y-185098546D01*
X184097284Y-185113999D01*
X184099841Y-185116631D01*
X184105726Y-185166732D01*
X184111359Y-185290518D01*
X184116503Y-185477008D01*
X184120921Y-185715218D01*
X184124376Y-185994168D01*
X184126631Y-186302876D01*
X184126937Y-186372142D01*
X184127789Y-186750315D01*
X184126275Y-187053887D01*
X184121182Y-187292916D01*
X184111299Y-187477461D01*
X184095413Y-187617579D01*
X184072314Y-187723329D01*
X184040788Y-187804768D01*
X183999624Y-187871956D01*
X183947611Y-187934949D01*
X183937263Y-187946334D01*
X183857959Y-188025004D01*
X183774102Y-188085922D01*
X183674031Y-188131265D01*
X183546082Y-188163212D01*
X183378596Y-188183940D01*
X183159909Y-188195627D01*
X182878361Y-188200451D01*
X182574833Y-188200764D01*
X182295593Y-188198430D01*
X182039126Y-188193425D01*
X181819581Y-188186254D01*
X181651106Y-188177420D01*
X181547846Y-188167430D01*
X181528834Y-188163490D01*
X181315606Y-188056619D01*
X181144467Y-187883720D01*
X181074983Y-187766996D01*
X181049412Y-187710558D01*
X181029403Y-187652217D01*
X181014390Y-187581553D01*
X181003806Y-187488144D01*
X180997084Y-187361573D01*
X180993657Y-187191417D01*
X180992958Y-186967258D01*
X180994420Y-186678675D01*
X180997266Y-186338542D01*
X181008500Y-185093833D01*
X181361852Y-185081471D01*
X181568947Y-185080946D01*
X181711658Y-185095251D01*
G36*
X185538166Y-188184166D02*
X185145867Y-188196348D01*
X184949432Y-188199359D01*
X184823642Y-188192712D01*
X184754868Y-188174900D01*
X184731292Y-188150476D01*
X184722423Y-188083263D01*
X184718401Y-187955457D01*
X184719795Y-187791024D01*
X184721424Y-187736128D01*
X184733833Y-187379833D01*
X185538166Y-187379833D01*
X185538166Y-188184166D01*
X185538166Y-188184166D01*
G37*
X185538166Y-188184166D02*
X185145867Y-188196348D01*
X184949432Y-188199359D01*
X184823642Y-188192712D01*
X184754868Y-188174900D01*
X184731292Y-188150476D01*
X184722423Y-188083263D01*
X184718401Y-187955457D01*
X184719795Y-187791024D01*
X184721424Y-187736128D01*
X184733833Y-187379833D01*
X185538166Y-187379833D01*
X185538166Y-188184166D01*
G36*
X187878601Y-184489344D02*
X187890702Y-184900854D01*
X187328268Y-184912677D01*
X187095459Y-184919039D01*
X186935071Y-184927737D01*
X186834861Y-184940411D01*
X186782587Y-184958699D01*
X186766006Y-184984242D01*
X186765833Y-184988000D01*
X186779718Y-185015145D01*
X186829501Y-185035308D01*
X186927373Y-185050366D01*
X187085527Y-185062193D01*
X187316153Y-185072666D01*
X187316166Y-185072666D01*
X187866500Y-185093833D01*
X187890732Y-185919333D01*
X187338866Y-185919333D01*
X187132857Y-185920097D01*
X186960407Y-185922188D01*
X186837547Y-185925303D01*
X186780311Y-185929140D01*
X186778186Y-185929916D01*
X186775012Y-185973307D01*
X186770563Y-186090204D01*
X186765154Y-186269461D01*
X186759095Y-186499932D01*
X186752700Y-186770473D01*
X186746436Y-187062333D01*
X186723500Y-188184166D01*
X186331916Y-188196338D01*
X185940333Y-188208510D01*
X185940333Y-186435580D01*
X185940403Y-186002002D01*
X185940893Y-185644746D01*
X185942221Y-185355467D01*
X185944804Y-185125823D01*
X185949061Y-184947467D01*
X185955410Y-184812057D01*
X185964269Y-184711246D01*
X185976055Y-184636692D01*
X185991187Y-184580049D01*
X186010083Y-184532973D01*
X186033161Y-184487120D01*
X186038447Y-184477113D01*
X186159534Y-184310982D01*
X186331875Y-184191065D01*
X186412796Y-184152641D01*
X186493178Y-184125196D01*
X186589377Y-184106711D01*
X186717748Y-184095162D01*
X186894647Y-184088532D01*
X187136429Y-184084797D01*
X187196845Y-184084193D01*
X187866500Y-184077833D01*
X187878601Y-184489344D01*
X187878601Y-184489344D01*
G37*
X187878601Y-184489344D02*
X187890702Y-184900854D01*
X187328268Y-184912677D01*
X187095459Y-184919039D01*
X186935071Y-184927737D01*
X186834861Y-184940411D01*
X186782587Y-184958699D01*
X186766006Y-184984242D01*
X186765833Y-184988000D01*
X186779718Y-185015145D01*
X186829501Y-185035308D01*
X186927373Y-185050366D01*
X187085527Y-185062193D01*
X187316153Y-185072666D01*
X187316166Y-185072666D01*
X187866500Y-185093833D01*
X187890732Y-185919333D01*
X187338866Y-185919333D01*
X187132857Y-185920097D01*
X186960407Y-185922188D01*
X186837547Y-185925303D01*
X186780311Y-185929140D01*
X186778186Y-185929916D01*
X186775012Y-185973307D01*
X186770563Y-186090204D01*
X186765154Y-186269461D01*
X186759095Y-186499932D01*
X186752700Y-186770473D01*
X186746436Y-187062333D01*
X186723500Y-188184166D01*
X186331916Y-188196338D01*
X185940333Y-188208510D01*
X185940333Y-186435580D01*
X185940403Y-186002002D01*
X185940893Y-185644746D01*
X185942221Y-185355467D01*
X185944804Y-185125823D01*
X185949061Y-184947467D01*
X185955410Y-184812057D01*
X185964269Y-184711246D01*
X185976055Y-184636692D01*
X185991187Y-184580049D01*
X186010083Y-184532973D01*
X186033161Y-184487120D01*
X186038447Y-184477113D01*
X186159534Y-184310982D01*
X186331875Y-184191065D01*
X186412796Y-184152641D01*
X186493178Y-184125196D01*
X186589377Y-184106711D01*
X186717748Y-184095162D01*
X186894647Y-184088532D01*
X187136429Y-184084797D01*
X187196845Y-184084193D01*
X187866500Y-184077833D01*
X187878601Y-184489344D01*
G36*
X189940833Y-185082147D02*
X190745166Y-185093833D01*
X190766333Y-185449670D01*
X190771821Y-185632396D01*
X190765621Y-185774517D01*
X190748767Y-185855871D01*
X190745166Y-185861882D01*
X190707110Y-185883464D01*
X190623340Y-185900124D01*
X190484729Y-185912610D01*
X190282150Y-185921666D01*
X190006477Y-185928040D01*
X189919666Y-185929378D01*
X189136500Y-185940500D01*
X189094166Y-188184166D01*
X188701867Y-188196348D01*
X188508164Y-188199578D01*
X188384096Y-188193622D01*
X188314961Y-188176756D01*
X188286180Y-188147579D01*
X188280632Y-188090924D01*
X188276484Y-187960876D01*
X188273820Y-187768699D01*
X188272729Y-187525656D01*
X188273297Y-187243012D01*
X188275610Y-186932031D01*
X188276312Y-186865398D01*
X188280980Y-186486601D01*
X188286949Y-186182513D01*
X188296095Y-185943177D01*
X188310296Y-185758639D01*
X188331429Y-185618941D01*
X188361372Y-185514129D01*
X188402002Y-185434246D01*
X188455196Y-185369336D01*
X188522832Y-185309443D01*
X188577773Y-185266698D01*
X188678965Y-185202037D01*
X188799035Y-185152881D01*
X188949592Y-185117655D01*
X189142249Y-185094790D01*
X189388618Y-185082712D01*
X189700309Y-185079849D01*
X189940833Y-185082147D01*
X189940833Y-185082147D01*
G37*
X189940833Y-185082147D02*
X190745166Y-185093833D01*
X190766333Y-185449670D01*
X190771821Y-185632396D01*
X190765621Y-185774517D01*
X190748767Y-185855871D01*
X190745166Y-185861882D01*
X190707110Y-185883464D01*
X190623340Y-185900124D01*
X190484729Y-185912610D01*
X190282150Y-185921666D01*
X190006477Y-185928040D01*
X189919666Y-185929378D01*
X189136500Y-185940500D01*
X189094166Y-188184166D01*
X188701867Y-188196348D01*
X188508164Y-188199578D01*
X188384096Y-188193622D01*
X188314961Y-188176756D01*
X188286180Y-188147579D01*
X188280632Y-188090924D01*
X188276484Y-187960876D01*
X188273820Y-187768699D01*
X188272729Y-187525656D01*
X188273297Y-187243012D01*
X188275610Y-186932031D01*
X188276312Y-186865398D01*
X188280980Y-186486601D01*
X188286949Y-186182513D01*
X188296095Y-185943177D01*
X188310296Y-185758639D01*
X188331429Y-185618941D01*
X188361372Y-185514129D01*
X188402002Y-185434246D01*
X188455196Y-185369336D01*
X188522832Y-185309443D01*
X188577773Y-185266698D01*
X188678965Y-185202037D01*
X188799035Y-185152881D01*
X188949592Y-185117655D01*
X189142249Y-185094790D01*
X189388618Y-185082712D01*
X189700309Y-185079849D01*
X189940833Y-185082147D01*
G36*
X173684833Y-180170384D02*
X173881421Y-180284875D01*
X174018598Y-180371774D01*
X174111418Y-180443776D01*
X174174937Y-180513577D01*
X174224210Y-180593876D01*
X174251074Y-180647917D01*
X174334589Y-180840167D01*
X174371885Y-180990695D01*
X174360033Y-181124313D01*
X174296108Y-181265833D01*
X174177181Y-181440067D01*
X174153942Y-181471189D01*
X174049375Y-181619987D01*
X173968509Y-181753472D01*
X173923251Y-181851113D01*
X173917666Y-181878647D01*
X173914027Y-181956562D01*
X173899875Y-182034333D01*
X173870362Y-182119487D01*
X173820637Y-182219553D01*
X173745852Y-182342057D01*
X173641156Y-182494527D01*
X173501701Y-182684490D01*
X173322636Y-182919473D01*
X173099112Y-183207005D01*
X172890620Y-183472804D01*
X172668910Y-183754191D01*
X172462807Y-184014554D01*
X172278336Y-184246372D01*
X172121523Y-184442124D01*
X171998395Y-184594292D01*
X171914976Y-184695354D01*
X171877293Y-184737791D01*
X171876523Y-184738373D01*
X171817755Y-184752903D01*
X171693093Y-184769931D01*
X171521211Y-184787857D01*
X171320780Y-184805083D01*
X171110474Y-184820011D01*
X170908967Y-184831042D01*
X170734931Y-184836577D01*
X170728336Y-184836668D01*
X170584875Y-184842516D01*
X170494025Y-184864667D01*
X170423766Y-184916966D01*
X170353813Y-184998583D01*
X170274169Y-185090698D01*
X170214963Y-185146293D01*
X170198810Y-185154042D01*
X170152151Y-185130571D01*
X170055944Y-185072068D01*
X169930709Y-184991029D01*
X169926465Y-184988213D01*
X169773674Y-184899072D01*
X169620197Y-184829283D01*
X169513715Y-184797283D01*
X169408827Y-184773303D01*
X169351006Y-184747896D01*
X169346987Y-184740862D01*
X169368212Y-184691055D01*
X169420482Y-184596911D01*
X169452604Y-184543500D01*
X169514453Y-184437721D01*
X169551959Y-184363243D01*
X169557116Y-184346439D01*
X169523859Y-184311217D01*
X169438400Y-184251036D01*
X169367611Y-184207527D01*
X169248167Y-184126167D01*
X169157251Y-184043983D01*
X169130948Y-184008631D01*
X169109138Y-183919846D01*
X169106023Y-183878273D01*
X169209090Y-183878273D01*
X169239471Y-183966960D01*
X169307545Y-184013115D01*
X169322328Y-184014333D01*
X169368063Y-183982530D01*
X169453849Y-183895164D01*
X169568793Y-183764297D01*
X169702001Y-183601990D01*
X169752410Y-183538083D01*
X169876624Y-183378618D01*
X170041880Y-183165976D01*
X170237458Y-182913979D01*
X170452635Y-182636450D01*
X170676690Y-182347211D01*
X170898903Y-182060084D01*
X170926297Y-182024666D01*
X171124964Y-181767841D01*
X171306603Y-181533120D01*
X171464842Y-181328730D01*
X171593307Y-181162900D01*
X171685626Y-181043857D01*
X171735427Y-180979827D01*
X171742284Y-180971135D01*
X171782173Y-180984968D01*
X171887052Y-181032488D01*
X172046595Y-181108706D01*
X172250478Y-181208632D01*
X172488374Y-181327275D01*
X172689908Y-181429095D01*
X172950796Y-181559583D01*
X173189509Y-181675130D01*
X173394891Y-181770644D01*
X173555783Y-181841033D01*
X173661028Y-181881206D01*
X173696599Y-181888473D01*
X173689183Y-181864745D01*
X173614500Y-181809215D01*
X173481252Y-181727457D01*
X173298146Y-181625040D01*
X173219166Y-181582849D01*
X172853290Y-181389736D01*
X172555053Y-181232107D01*
X172317449Y-181105488D01*
X172133472Y-181005406D01*
X171996117Y-180927385D01*
X171898378Y-180866953D01*
X171833250Y-180819636D01*
X171793727Y-180780958D01*
X171772803Y-180746447D01*
X171763473Y-180711627D01*
X171758731Y-180672026D01*
X171755785Y-180648289D01*
X171733624Y-180554046D01*
X171708405Y-180540687D01*
X171683960Y-180604710D01*
X171665236Y-180731053D01*
X171637066Y-180827287D01*
X171560084Y-180878038D01*
X171522344Y-180889175D01*
X171481571Y-180907682D01*
X171428615Y-180948382D01*
X171358641Y-181017053D01*
X171266815Y-181119474D01*
X171148302Y-181261424D01*
X170998268Y-181448681D01*
X170811877Y-181687023D01*
X170584297Y-181982230D01*
X170333792Y-182309788D01*
X170103902Y-182611707D01*
X169888986Y-182895011D01*
X169694737Y-183152121D01*
X169526844Y-183375458D01*
X169390997Y-183557444D01*
X169292888Y-183690500D01*
X169238205Y-183767046D01*
X169229621Y-183780406D01*
X169209090Y-183878273D01*
X169106023Y-183878273D01*
X169097447Y-183763839D01*
X169096982Y-183557571D01*
X169098419Y-183509295D01*
X169112833Y-183097673D01*
X170158730Y-181702456D01*
X170388256Y-181397288D01*
X170605613Y-181110237D01*
X170804792Y-180849100D01*
X170979781Y-180621673D01*
X171124572Y-180435752D01*
X171233152Y-180299133D01*
X171299511Y-180219611D01*
X171312586Y-180205817D01*
X171407161Y-180139146D01*
X171526440Y-180107861D01*
X171642522Y-180101195D01*
X171865614Y-180070611D01*
X171882187Y-180062977D01*
X172351333Y-180062977D01*
X172386855Y-180093208D01*
X172485328Y-180155914D01*
X172634608Y-180244458D01*
X172822553Y-180352207D01*
X173037023Y-180472523D01*
X173265873Y-180598773D01*
X173496962Y-180724319D01*
X173718148Y-180842528D01*
X173917288Y-180946763D01*
X174082241Y-181030389D01*
X174200864Y-181086770D01*
X174261015Y-181109271D01*
X174265328Y-181108940D01*
X174266920Y-181062999D01*
X174241901Y-180960059D01*
X174195591Y-180821538D01*
X174190558Y-180808050D01*
X174137286Y-180668908D01*
X174096270Y-180566229D01*
X174075745Y-180520580D01*
X174075200Y-180519982D01*
X174036784Y-180498097D01*
X173939335Y-180443431D01*
X173797813Y-180364358D01*
X173636162Y-180274254D01*
X173443839Y-180169338D01*
X173302937Y-180100374D01*
X173192156Y-180059954D01*
X173090196Y-180040670D01*
X172975757Y-180035115D01*
X172948246Y-180034999D01*
X172794107Y-180042327D01*
X172706338Y-180062993D01*
X172690000Y-180082044D01*
X172727453Y-180110167D01*
X172834526Y-180101975D01*
X172929817Y-180089323D01*
X172963393Y-180107301D01*
X172957427Y-180157557D01*
X172975327Y-180235183D01*
X173053907Y-180303526D01*
X173169248Y-180349974D01*
X173297430Y-180361917D01*
X173335328Y-180356784D01*
X173420990Y-180347185D01*
X173443002Y-180371636D01*
X173436660Y-180394914D01*
X173429771Y-180428751D01*
X173445650Y-180462349D01*
X173496331Y-180505314D01*
X173593850Y-180567256D01*
X173750241Y-180657782D01*
X173804573Y-180688627D01*
X173912042Y-180755274D01*
X173976807Y-180806818D01*
X173986318Y-180827125D01*
X173943965Y-180814802D01*
X173839628Y-180766964D01*
X173685145Y-180689552D01*
X173492356Y-180588504D01*
X173273101Y-180469762D01*
X173263256Y-180464348D01*
X172964601Y-180302100D01*
X172732485Y-180181115D01*
X172561024Y-180098800D01*
X172444331Y-180052566D01*
X172376522Y-180039823D01*
X172351711Y-180057979D01*
X172351333Y-180062977D01*
X171882187Y-180062977D01*
X171989428Y-180013581D01*
X172054330Y-179977563D01*
X172135322Y-179952298D01*
X172249173Y-179935379D01*
X172412653Y-179924401D01*
X172642533Y-179916956D01*
X172666761Y-179916384D01*
X173219166Y-179903602D01*
X173684833Y-180170384D01*
X173684833Y-180170384D01*
G37*
X173684833Y-180170384D02*
X173881421Y-180284875D01*
X174018598Y-180371774D01*
X174111418Y-180443776D01*
X174174937Y-180513577D01*
X174224210Y-180593876D01*
X174251074Y-180647917D01*
X174334589Y-180840167D01*
X174371885Y-180990695D01*
X174360033Y-181124313D01*
X174296108Y-181265833D01*
X174177181Y-181440067D01*
X174153942Y-181471189D01*
X174049375Y-181619987D01*
X173968509Y-181753472D01*
X173923251Y-181851113D01*
X173917666Y-181878647D01*
X173914027Y-181956562D01*
X173899875Y-182034333D01*
X173870362Y-182119487D01*
X173820637Y-182219553D01*
X173745852Y-182342057D01*
X173641156Y-182494527D01*
X173501701Y-182684490D01*
X173322636Y-182919473D01*
X173099112Y-183207005D01*
X172890620Y-183472804D01*
X172668910Y-183754191D01*
X172462807Y-184014554D01*
X172278336Y-184246372D01*
X172121523Y-184442124D01*
X171998395Y-184594292D01*
X171914976Y-184695354D01*
X171877293Y-184737791D01*
X171876523Y-184738373D01*
X171817755Y-184752903D01*
X171693093Y-184769931D01*
X171521211Y-184787857D01*
X171320780Y-184805083D01*
X171110474Y-184820011D01*
X170908967Y-184831042D01*
X170734931Y-184836577D01*
X170728336Y-184836668D01*
X170584875Y-184842516D01*
X170494025Y-184864667D01*
X170423766Y-184916966D01*
X170353813Y-184998583D01*
X170274169Y-185090698D01*
X170214963Y-185146293D01*
X170198810Y-185154042D01*
X170152151Y-185130571D01*
X170055944Y-185072068D01*
X169930709Y-184991029D01*
X169926465Y-184988213D01*
X169773674Y-184899072D01*
X169620197Y-184829283D01*
X169513715Y-184797283D01*
X169408827Y-184773303D01*
X169351006Y-184747896D01*
X169346987Y-184740862D01*
X169368212Y-184691055D01*
X169420482Y-184596911D01*
X169452604Y-184543500D01*
X169514453Y-184437721D01*
X169551959Y-184363243D01*
X169557116Y-184346439D01*
X169523859Y-184311217D01*
X169438400Y-184251036D01*
X169367611Y-184207527D01*
X169248167Y-184126167D01*
X169157251Y-184043983D01*
X169130948Y-184008631D01*
X169109138Y-183919846D01*
X169106023Y-183878273D01*
X169209090Y-183878273D01*
X169239471Y-183966960D01*
X169307545Y-184013115D01*
X169322328Y-184014333D01*
X169368063Y-183982530D01*
X169453849Y-183895164D01*
X169568793Y-183764297D01*
X169702001Y-183601990D01*
X169752410Y-183538083D01*
X169876624Y-183378618D01*
X170041880Y-183165976D01*
X170237458Y-182913979D01*
X170452635Y-182636450D01*
X170676690Y-182347211D01*
X170898903Y-182060084D01*
X170926297Y-182024666D01*
X171124964Y-181767841D01*
X171306603Y-181533120D01*
X171464842Y-181328730D01*
X171593307Y-181162900D01*
X171685626Y-181043857D01*
X171735427Y-180979827D01*
X171742284Y-180971135D01*
X171782173Y-180984968D01*
X171887052Y-181032488D01*
X172046595Y-181108706D01*
X172250478Y-181208632D01*
X172488374Y-181327275D01*
X172689908Y-181429095D01*
X172950796Y-181559583D01*
X173189509Y-181675130D01*
X173394891Y-181770644D01*
X173555783Y-181841033D01*
X173661028Y-181881206D01*
X173696599Y-181888473D01*
X173689183Y-181864745D01*
X173614500Y-181809215D01*
X173481252Y-181727457D01*
X173298146Y-181625040D01*
X173219166Y-181582849D01*
X172853290Y-181389736D01*
X172555053Y-181232107D01*
X172317449Y-181105488D01*
X172133472Y-181005406D01*
X171996117Y-180927385D01*
X171898378Y-180866953D01*
X171833250Y-180819636D01*
X171793727Y-180780958D01*
X171772803Y-180746447D01*
X171763473Y-180711627D01*
X171758731Y-180672026D01*
X171755785Y-180648289D01*
X171733624Y-180554046D01*
X171708405Y-180540687D01*
X171683960Y-180604710D01*
X171665236Y-180731053D01*
X171637066Y-180827287D01*
X171560084Y-180878038D01*
X171522344Y-180889175D01*
X171481571Y-180907682D01*
X171428615Y-180948382D01*
X171358641Y-181017053D01*
X171266815Y-181119474D01*
X171148302Y-181261424D01*
X170998268Y-181448681D01*
X170811877Y-181687023D01*
X170584297Y-181982230D01*
X170333792Y-182309788D01*
X170103902Y-182611707D01*
X169888986Y-182895011D01*
X169694737Y-183152121D01*
X169526844Y-183375458D01*
X169390997Y-183557444D01*
X169292888Y-183690500D01*
X169238205Y-183767046D01*
X169229621Y-183780406D01*
X169209090Y-183878273D01*
X169106023Y-183878273D01*
X169097447Y-183763839D01*
X169096982Y-183557571D01*
X169098419Y-183509295D01*
X169112833Y-183097673D01*
X170158730Y-181702456D01*
X170388256Y-181397288D01*
X170605613Y-181110237D01*
X170804792Y-180849100D01*
X170979781Y-180621673D01*
X171124572Y-180435752D01*
X171233152Y-180299133D01*
X171299511Y-180219611D01*
X171312586Y-180205817D01*
X171407161Y-180139146D01*
X171526440Y-180107861D01*
X171642522Y-180101195D01*
X171865614Y-180070611D01*
X171882187Y-180062977D01*
X172351333Y-180062977D01*
X172386855Y-180093208D01*
X172485328Y-180155914D01*
X172634608Y-180244458D01*
X172822553Y-180352207D01*
X173037023Y-180472523D01*
X173265873Y-180598773D01*
X173496962Y-180724319D01*
X173718148Y-180842528D01*
X173917288Y-180946763D01*
X174082241Y-181030389D01*
X174200864Y-181086770D01*
X174261015Y-181109271D01*
X174265328Y-181108940D01*
X174266920Y-181062999D01*
X174241901Y-180960059D01*
X174195591Y-180821538D01*
X174190558Y-180808050D01*
X174137286Y-180668908D01*
X174096270Y-180566229D01*
X174075745Y-180520580D01*
X174075200Y-180519982D01*
X174036784Y-180498097D01*
X173939335Y-180443431D01*
X173797813Y-180364358D01*
X173636162Y-180274254D01*
X173443839Y-180169338D01*
X173302937Y-180100374D01*
X173192156Y-180059954D01*
X173090196Y-180040670D01*
X172975757Y-180035115D01*
X172948246Y-180034999D01*
X172794107Y-180042327D01*
X172706338Y-180062993D01*
X172690000Y-180082044D01*
X172727453Y-180110167D01*
X172834526Y-180101975D01*
X172929817Y-180089323D01*
X172963393Y-180107301D01*
X172957427Y-180157557D01*
X172975327Y-180235183D01*
X173053907Y-180303526D01*
X173169248Y-180349974D01*
X173297430Y-180361917D01*
X173335328Y-180356784D01*
X173420990Y-180347185D01*
X173443002Y-180371636D01*
X173436660Y-180394914D01*
X173429771Y-180428751D01*
X173445650Y-180462349D01*
X173496331Y-180505314D01*
X173593850Y-180567256D01*
X173750241Y-180657782D01*
X173804573Y-180688627D01*
X173912042Y-180755274D01*
X173976807Y-180806818D01*
X173986318Y-180827125D01*
X173943965Y-180814802D01*
X173839628Y-180766964D01*
X173685145Y-180689552D01*
X173492356Y-180588504D01*
X173273101Y-180469762D01*
X173263256Y-180464348D01*
X172964601Y-180302100D01*
X172732485Y-180181115D01*
X172561024Y-180098800D01*
X172444331Y-180052566D01*
X172376522Y-180039823D01*
X172351711Y-180057979D01*
X172351333Y-180062977D01*
X171882187Y-180062977D01*
X171989428Y-180013581D01*
X172054330Y-179977563D01*
X172135322Y-179952298D01*
X172249173Y-179935379D01*
X172412653Y-179924401D01*
X172642533Y-179916956D01*
X172666761Y-179916384D01*
X173219166Y-179903602D01*
X173684833Y-180170384D01*
G36*
X163553242Y-180117937D02*
X163764863Y-180142186D01*
X163971959Y-180180901D01*
X164157120Y-180233197D01*
X164184359Y-180243071D01*
X164390318Y-180343031D01*
X164585482Y-180477055D01*
X164745120Y-180625803D01*
X164836177Y-180752753D01*
X164875786Y-180840090D01*
X164935582Y-180984758D01*
X165006586Y-181164606D01*
X165061854Y-181309421D01*
X165252867Y-181778595D01*
X165445841Y-182176045D01*
X165634248Y-182490333D01*
X165695501Y-182567503D01*
X165807731Y-182696058D01*
X165962605Y-182866957D01*
X166151790Y-183071163D01*
X166366954Y-183299636D01*
X166599763Y-183543339D01*
X166716665Y-183664447D01*
X166949219Y-183905346D01*
X167163454Y-184128826D01*
X167352049Y-184327130D01*
X167507686Y-184492499D01*
X167623042Y-184617175D01*
X167690798Y-184693400D01*
X167705315Y-184712197D01*
X167711876Y-184742692D01*
X167681071Y-184761820D01*
X167599303Y-184772084D01*
X167452976Y-184775986D01*
X167356743Y-184776333D01*
X167122969Y-184784508D01*
X166935314Y-184807472D01*
X166827732Y-184836729D01*
X166683184Y-184897125D01*
X166632991Y-184745041D01*
X166550930Y-184585707D01*
X166417384Y-184416394D01*
X166257252Y-184263642D01*
X166095437Y-184153991D01*
X166064833Y-184139469D01*
X165909495Y-184085640D01*
X165737285Y-184044482D01*
X165700026Y-184038438D01*
X165618286Y-184022269D01*
X165540984Y-183992566D01*
X165454930Y-183940098D01*
X165346936Y-183855630D01*
X165203812Y-183729930D01*
X165026753Y-183567130D01*
X164764847Y-183333532D01*
X164537336Y-183155754D01*
X164325671Y-183023541D01*
X164111305Y-182926639D01*
X163875689Y-182854796D01*
X163651833Y-182807059D01*
X163451789Y-182761767D01*
X163256849Y-182703741D01*
X163101421Y-182643589D01*
X163068730Y-182627305D01*
X162861386Y-182486788D01*
X162668655Y-182304275D01*
X162502674Y-182096924D01*
X162375580Y-181881894D01*
X162299508Y-181676344D01*
X162284300Y-181518264D01*
X162297166Y-181356724D01*
X162741666Y-181636623D01*
X162978626Y-181780284D01*
X163162321Y-181873879D01*
X163307095Y-181918310D01*
X163427291Y-181914478D01*
X163537253Y-181863282D01*
X163651325Y-181765624D01*
X163716086Y-181697805D01*
X163867260Y-181500187D01*
X163980936Y-181285421D01*
X164044694Y-181079754D01*
X164053999Y-180983721D01*
X164034917Y-180909960D01*
X163972241Y-180828946D01*
X163857833Y-180734067D01*
X163683550Y-180618708D01*
X163441252Y-180476254D01*
X163402391Y-180454307D01*
X163240020Y-180358705D01*
X163111115Y-180274650D01*
X163030121Y-180212114D01*
X163009738Y-180183319D01*
X163065345Y-180140846D01*
X163186072Y-180116381D01*
X163354508Y-180109041D01*
X163553242Y-180117937D01*
X163553242Y-180117937D01*
G37*
X163553242Y-180117937D02*
X163764863Y-180142186D01*
X163971959Y-180180901D01*
X164157120Y-180233197D01*
X164184359Y-180243071D01*
X164390318Y-180343031D01*
X164585482Y-180477055D01*
X164745120Y-180625803D01*
X164836177Y-180752753D01*
X164875786Y-180840090D01*
X164935582Y-180984758D01*
X165006586Y-181164606D01*
X165061854Y-181309421D01*
X165252867Y-181778595D01*
X165445841Y-182176045D01*
X165634248Y-182490333D01*
X165695501Y-182567503D01*
X165807731Y-182696058D01*
X165962605Y-182866957D01*
X166151790Y-183071163D01*
X166366954Y-183299636D01*
X166599763Y-183543339D01*
X166716665Y-183664447D01*
X166949219Y-183905346D01*
X167163454Y-184128826D01*
X167352049Y-184327130D01*
X167507686Y-184492499D01*
X167623042Y-184617175D01*
X167690798Y-184693400D01*
X167705315Y-184712197D01*
X167711876Y-184742692D01*
X167681071Y-184761820D01*
X167599303Y-184772084D01*
X167452976Y-184775986D01*
X167356743Y-184776333D01*
X167122969Y-184784508D01*
X166935314Y-184807472D01*
X166827732Y-184836729D01*
X166683184Y-184897125D01*
X166632991Y-184745041D01*
X166550930Y-184585707D01*
X166417384Y-184416394D01*
X166257252Y-184263642D01*
X166095437Y-184153991D01*
X166064833Y-184139469D01*
X165909495Y-184085640D01*
X165737285Y-184044482D01*
X165700026Y-184038438D01*
X165618286Y-184022269D01*
X165540984Y-183992566D01*
X165454930Y-183940098D01*
X165346936Y-183855630D01*
X165203812Y-183729930D01*
X165026753Y-183567130D01*
X164764847Y-183333532D01*
X164537336Y-183155754D01*
X164325671Y-183023541D01*
X164111305Y-182926639D01*
X163875689Y-182854796D01*
X163651833Y-182807059D01*
X163451789Y-182761767D01*
X163256849Y-182703741D01*
X163101421Y-182643589D01*
X163068730Y-182627305D01*
X162861386Y-182486788D01*
X162668655Y-182304275D01*
X162502674Y-182096924D01*
X162375580Y-181881894D01*
X162299508Y-181676344D01*
X162284300Y-181518264D01*
X162297166Y-181356724D01*
X162741666Y-181636623D01*
X162978626Y-181780284D01*
X163162321Y-181873879D01*
X163307095Y-181918310D01*
X163427291Y-181914478D01*
X163537253Y-181863282D01*
X163651325Y-181765624D01*
X163716086Y-181697805D01*
X163867260Y-181500187D01*
X163980936Y-181285421D01*
X164044694Y-181079754D01*
X164053999Y-180983721D01*
X164034917Y-180909960D01*
X163972241Y-180828946D01*
X163857833Y-180734067D01*
X163683550Y-180618708D01*
X163441252Y-180476254D01*
X163402391Y-180454307D01*
X163240020Y-180358705D01*
X163111115Y-180274650D01*
X163030121Y-180212114D01*
X163009738Y-180183319D01*
X163065345Y-180140846D01*
X163186072Y-180116381D01*
X163354508Y-180109041D01*
X163553242Y-180117937D01*
D13*
X77942335Y-110671392D02*
G75*
G03X74710000Y-110514484I-1672335J-1078608D01*
G01*
X77942335Y-112828608D02*
G75*
G02X74710000Y-112985516I-1672335J1078608D01*
G01*
X77311130Y-110670163D02*
G75*
G03X75229039Y-110670000I-1041130J-1079837D01*
G01*
X77311130Y-112829837D02*
G75*
G02X75229039Y-112830000I-1041130J1079837D01*
G01*
X74710000Y-110514000D02*
X74710000Y-110670000D01*
X74710000Y-112830000D02*
X74710000Y-112986000D01*
X80192335Y-148671392D02*
G75*
G03X76960000Y-148514484I-1672335J-1078608D01*
G01*
X80192335Y-150828608D02*
G75*
G02X76960000Y-150985516I-1672335J1078608D01*
G01*
X79561130Y-148670163D02*
G75*
G03X77479039Y-148670000I-1041130J-1079837D01*
G01*
X79561130Y-150829837D02*
G75*
G02X77479039Y-150830000I-1041130J1079837D01*
G01*
X76960000Y-148514000D02*
X76960000Y-148670000D01*
X76960000Y-150830000D02*
X76960000Y-150986000D01*
X81807665Y-150828608D02*
G75*
G03X85040000Y-150985516I1672335J1078608D01*
G01*
X81807665Y-148671392D02*
G75*
G02X85040000Y-148514484I1672335J-1078608D01*
G01*
X82438870Y-150829837D02*
G75*
G03X84520961Y-150830000I1041130J1079837D01*
G01*
X82438870Y-148670163D02*
G75*
G02X84520961Y-148670000I1041130J-1079837D01*
G01*
X85040000Y-150986000D02*
X85040000Y-150830000D01*
X85040000Y-148670000D02*
X85040000Y-148514000D01*
D11*
X72231250Y-138906250D02*
X74009250Y-138906250D01*
X83153250Y-138906250D02*
X84931250Y-138906250D01*
X84931250Y-138906250D02*
X84931250Y-140684250D01*
X84931250Y-149828250D02*
X84931250Y-151606250D01*
X84931250Y-151606250D02*
X83153250Y-151606250D01*
X74009250Y-151606250D02*
X72231250Y-151606250D01*
X72231250Y-151606250D02*
X72231250Y-149828250D01*
X72231250Y-140684250D02*
X72231250Y-138906250D01*
X293687500Y-177006250D02*
X295465500Y-177006250D01*
X304609500Y-177006250D02*
X306387500Y-177006250D01*
X306387500Y-177006250D02*
X306387500Y-178784250D01*
X306387500Y-187928250D02*
X306387500Y-189706250D01*
X306387500Y-189706250D02*
X304609500Y-189706250D01*
X295465500Y-189706250D02*
X293687500Y-189706250D01*
X293687500Y-189706250D02*
X293687500Y-187928250D01*
X293687500Y-178784250D02*
X293687500Y-177006250D01*
X303212500Y-177006250D02*
X304990500Y-177006250D01*
X314134500Y-177006250D02*
X315912500Y-177006250D01*
X315912500Y-177006250D02*
X315912500Y-178784250D01*
X315912500Y-187928250D02*
X315912500Y-189706250D01*
X315912500Y-189706250D02*
X314134500Y-189706250D01*
X304990500Y-189706250D02*
X303212500Y-189706250D01*
X303212500Y-189706250D02*
X303212500Y-187928250D01*
X303212500Y-178784250D02*
X303212500Y-177006250D01*
X317500000Y-100806250D02*
X319278000Y-100806250D01*
X328422000Y-100806250D02*
X330200000Y-100806250D01*
X330200000Y-100806250D02*
X330200000Y-102584250D01*
X330200000Y-111728250D02*
X330200000Y-113506250D01*
X330200000Y-113506250D02*
X328422000Y-113506250D01*
X319278000Y-113506250D02*
X317500000Y-113506250D01*
X317500000Y-113506250D02*
X317500000Y-111728250D01*
X317500000Y-102584250D02*
X317500000Y-100806250D01*
X69850000Y-100806250D02*
X71628000Y-100806250D01*
X80772000Y-100806250D02*
X82550000Y-100806250D01*
X82550000Y-100806250D02*
X82550000Y-102584250D01*
X82550000Y-111728250D02*
X82550000Y-113506250D01*
X82550000Y-113506250D02*
X80772000Y-113506250D01*
X71628000Y-113506250D02*
X69850000Y-113506250D01*
X69850000Y-113506250D02*
X69850000Y-111728250D01*
X69850000Y-102584250D02*
X69850000Y-100806250D01*
X107950000Y-100806250D02*
X109728000Y-100806250D01*
X118872000Y-100806250D02*
X120650000Y-100806250D01*
X120650000Y-100806250D02*
X120650000Y-102584250D01*
X120650000Y-111728250D02*
X120650000Y-113506250D01*
X120650000Y-113506250D02*
X118872000Y-113506250D01*
X109728000Y-113506250D02*
X107950000Y-113506250D01*
X107950000Y-113506250D02*
X107950000Y-111728250D01*
X107950000Y-102584250D02*
X107950000Y-100806250D01*
X127000000Y-100806250D02*
X128778000Y-100806250D01*
X137922000Y-100806250D02*
X139700000Y-100806250D01*
X139700000Y-100806250D02*
X139700000Y-102584250D01*
X139700000Y-111728250D02*
X139700000Y-113506250D01*
X139700000Y-113506250D02*
X137922000Y-113506250D01*
X128778000Y-113506250D02*
X127000000Y-113506250D01*
X127000000Y-113506250D02*
X127000000Y-111728250D01*
X127000000Y-102584250D02*
X127000000Y-100806250D01*
X146050000Y-100806250D02*
X147828000Y-100806250D01*
X156972000Y-100806250D02*
X158750000Y-100806250D01*
X158750000Y-100806250D02*
X158750000Y-102584250D01*
X158750000Y-111728250D02*
X158750000Y-113506250D01*
X158750000Y-113506250D02*
X156972000Y-113506250D01*
X147828000Y-113506250D02*
X146050000Y-113506250D01*
X146050000Y-113506250D02*
X146050000Y-111728250D01*
X146050000Y-102584250D02*
X146050000Y-100806250D01*
X165100000Y-100806250D02*
X166878000Y-100806250D01*
X176022000Y-100806250D02*
X177800000Y-100806250D01*
X177800000Y-100806250D02*
X177800000Y-102584250D01*
X177800000Y-111728250D02*
X177800000Y-113506250D01*
X177800000Y-113506250D02*
X176022000Y-113506250D01*
X166878000Y-113506250D02*
X165100000Y-113506250D01*
X165100000Y-113506250D02*
X165100000Y-111728250D01*
X165100000Y-102584250D02*
X165100000Y-100806250D01*
X184150000Y-100806250D02*
X185928000Y-100806250D01*
X195072000Y-100806250D02*
X196850000Y-100806250D01*
X196850000Y-100806250D02*
X196850000Y-102584250D01*
X196850000Y-111728250D02*
X196850000Y-113506250D01*
X196850000Y-113506250D02*
X195072000Y-113506250D01*
X185928000Y-113506250D02*
X184150000Y-113506250D01*
X184150000Y-113506250D02*
X184150000Y-111728250D01*
X184150000Y-102584250D02*
X184150000Y-100806250D01*
X203200000Y-100806250D02*
X204978000Y-100806250D01*
X214122000Y-100806250D02*
X215900000Y-100806250D01*
X215900000Y-100806250D02*
X215900000Y-102584250D01*
X215900000Y-111728250D02*
X215900000Y-113506250D01*
X215900000Y-113506250D02*
X214122000Y-113506250D01*
X204978000Y-113506250D02*
X203200000Y-113506250D01*
X203200000Y-113506250D02*
X203200000Y-111728250D01*
X203200000Y-102584250D02*
X203200000Y-100806250D01*
X222250000Y-100806250D02*
X224028000Y-100806250D01*
X233172000Y-100806250D02*
X234950000Y-100806250D01*
X234950000Y-100806250D02*
X234950000Y-102584250D01*
X234950000Y-111728250D02*
X234950000Y-113506250D01*
X234950000Y-113506250D02*
X233172000Y-113506250D01*
X224028000Y-113506250D02*
X222250000Y-113506250D01*
X222250000Y-113506250D02*
X222250000Y-111728250D01*
X222250000Y-102584250D02*
X222250000Y-100806250D01*
X241300000Y-100806250D02*
X243078000Y-100806250D01*
X252222000Y-100806250D02*
X254000000Y-100806250D01*
X254000000Y-100806250D02*
X254000000Y-102584250D01*
X254000000Y-111728250D02*
X254000000Y-113506250D01*
X254000000Y-113506250D02*
X252222000Y-113506250D01*
X243078000Y-113506250D02*
X241300000Y-113506250D01*
X241300000Y-113506250D02*
X241300000Y-111728250D01*
X241300000Y-102584250D02*
X241300000Y-100806250D01*
X260350000Y-100806250D02*
X262128000Y-100806250D01*
X271272000Y-100806250D02*
X273050000Y-100806250D01*
X273050000Y-100806250D02*
X273050000Y-102584250D01*
X273050000Y-111728250D02*
X273050000Y-113506250D01*
X273050000Y-113506250D02*
X271272000Y-113506250D01*
X262128000Y-113506250D02*
X260350000Y-113506250D01*
X260350000Y-113506250D02*
X260350000Y-111728250D01*
X260350000Y-102584250D02*
X260350000Y-100806250D01*
X279400000Y-100806250D02*
X281178000Y-100806250D01*
X290322000Y-100806250D02*
X292100000Y-100806250D01*
X292100000Y-100806250D02*
X292100000Y-102584250D01*
X292100000Y-111728250D02*
X292100000Y-113506250D01*
X292100000Y-113506250D02*
X290322000Y-113506250D01*
X281178000Y-113506250D02*
X279400000Y-113506250D01*
X279400000Y-113506250D02*
X279400000Y-111728250D01*
X279400000Y-102584250D02*
X279400000Y-100806250D01*
X298450000Y-100806250D02*
X300228000Y-100806250D01*
X309372000Y-100806250D02*
X311150000Y-100806250D01*
X311150000Y-100806250D02*
X311150000Y-102584250D01*
X311150000Y-111728250D02*
X311150000Y-113506250D01*
X311150000Y-113506250D02*
X309372000Y-113506250D01*
X300228000Y-113506250D02*
X298450000Y-113506250D01*
X298450000Y-113506250D02*
X298450000Y-111728250D01*
X298450000Y-102584250D02*
X298450000Y-100806250D01*
X98425000Y-119856250D02*
X100203000Y-119856250D01*
X109347000Y-119856250D02*
X111125000Y-119856250D01*
X111125000Y-119856250D02*
X111125000Y-121634250D01*
X111125000Y-130778250D02*
X111125000Y-132556250D01*
X111125000Y-132556250D02*
X109347000Y-132556250D01*
X100203000Y-132556250D02*
X98425000Y-132556250D01*
X98425000Y-132556250D02*
X98425000Y-130778250D01*
X98425000Y-121634250D02*
X98425000Y-119856250D01*
X117475000Y-119856250D02*
X119253000Y-119856250D01*
X128397000Y-119856250D02*
X130175000Y-119856250D01*
X130175000Y-119856250D02*
X130175000Y-121634250D01*
X130175000Y-130778250D02*
X130175000Y-132556250D01*
X130175000Y-132556250D02*
X128397000Y-132556250D01*
X119253000Y-132556250D02*
X117475000Y-132556250D01*
X117475000Y-132556250D02*
X117475000Y-130778250D01*
X117475000Y-121634250D02*
X117475000Y-119856250D01*
X136525000Y-119856250D02*
X138303000Y-119856250D01*
X147447000Y-119856250D02*
X149225000Y-119856250D01*
X149225000Y-119856250D02*
X149225000Y-121634250D01*
X149225000Y-130778250D02*
X149225000Y-132556250D01*
X149225000Y-132556250D02*
X147447000Y-132556250D01*
X138303000Y-132556250D02*
X136525000Y-132556250D01*
X136525000Y-132556250D02*
X136525000Y-130778250D01*
X136525000Y-121634250D02*
X136525000Y-119856250D01*
X155575000Y-119856250D02*
X157353000Y-119856250D01*
X166497000Y-119856250D02*
X168275000Y-119856250D01*
X168275000Y-119856250D02*
X168275000Y-121634250D01*
X168275000Y-130778250D02*
X168275000Y-132556250D01*
X168275000Y-132556250D02*
X166497000Y-132556250D01*
X157353000Y-132556250D02*
X155575000Y-132556250D01*
X155575000Y-132556250D02*
X155575000Y-130778250D01*
X155575000Y-121634250D02*
X155575000Y-119856250D01*
X174625000Y-119856250D02*
X176403000Y-119856250D01*
X185547000Y-119856250D02*
X187325000Y-119856250D01*
X187325000Y-119856250D02*
X187325000Y-121634250D01*
X187325000Y-130778250D02*
X187325000Y-132556250D01*
X187325000Y-132556250D02*
X185547000Y-132556250D01*
X176403000Y-132556250D02*
X174625000Y-132556250D01*
X174625000Y-132556250D02*
X174625000Y-130778250D01*
X174625000Y-121634250D02*
X174625000Y-119856250D01*
X193675000Y-119856250D02*
X195453000Y-119856250D01*
X204597000Y-119856250D02*
X206375000Y-119856250D01*
X206375000Y-119856250D02*
X206375000Y-121634250D01*
X206375000Y-130778250D02*
X206375000Y-132556250D01*
X206375000Y-132556250D02*
X204597000Y-132556250D01*
X195453000Y-132556250D02*
X193675000Y-132556250D01*
X193675000Y-132556250D02*
X193675000Y-130778250D01*
X193675000Y-121634250D02*
X193675000Y-119856250D01*
X212725000Y-119856250D02*
X214503000Y-119856250D01*
X223647000Y-119856250D02*
X225425000Y-119856250D01*
X225425000Y-119856250D02*
X225425000Y-121634250D01*
X225425000Y-130778250D02*
X225425000Y-132556250D01*
X225425000Y-132556250D02*
X223647000Y-132556250D01*
X214503000Y-132556250D02*
X212725000Y-132556250D01*
X212725000Y-132556250D02*
X212725000Y-130778250D01*
X212725000Y-121634250D02*
X212725000Y-119856250D01*
X231775000Y-119856250D02*
X233553000Y-119856250D01*
X242697000Y-119856250D02*
X244475000Y-119856250D01*
X244475000Y-119856250D02*
X244475000Y-121634250D01*
X244475000Y-130778250D02*
X244475000Y-132556250D01*
X244475000Y-132556250D02*
X242697000Y-132556250D01*
X233553000Y-132556250D02*
X231775000Y-132556250D01*
X231775000Y-132556250D02*
X231775000Y-130778250D01*
X231775000Y-121634250D02*
X231775000Y-119856250D01*
X250825000Y-119856250D02*
X252603000Y-119856250D01*
X261747000Y-119856250D02*
X263525000Y-119856250D01*
X263525000Y-119856250D02*
X263525000Y-121634250D01*
X263525000Y-130778250D02*
X263525000Y-132556250D01*
X263525000Y-132556250D02*
X261747000Y-132556250D01*
X252603000Y-132556250D02*
X250825000Y-132556250D01*
X250825000Y-132556250D02*
X250825000Y-130778250D01*
X250825000Y-121634250D02*
X250825000Y-119856250D01*
X269875000Y-119856250D02*
X271653000Y-119856250D01*
X280797000Y-119856250D02*
X282575000Y-119856250D01*
X282575000Y-119856250D02*
X282575000Y-121634250D01*
X282575000Y-130778250D02*
X282575000Y-132556250D01*
X282575000Y-132556250D02*
X280797000Y-132556250D01*
X271653000Y-132556250D02*
X269875000Y-132556250D01*
X269875000Y-132556250D02*
X269875000Y-130778250D01*
X269875000Y-121634250D02*
X269875000Y-119856250D01*
X288925000Y-119856250D02*
X290703000Y-119856250D01*
X299847000Y-119856250D02*
X301625000Y-119856250D01*
X301625000Y-119856250D02*
X301625000Y-121634250D01*
X301625000Y-130778250D02*
X301625000Y-132556250D01*
X301625000Y-132556250D02*
X299847000Y-132556250D01*
X290703000Y-132556250D02*
X288925000Y-132556250D01*
X288925000Y-132556250D02*
X288925000Y-130778250D01*
X288925000Y-121634250D02*
X288925000Y-119856250D01*
X307975000Y-119856250D02*
X309753000Y-119856250D01*
X318897000Y-119856250D02*
X320675000Y-119856250D01*
X320675000Y-119856250D02*
X320675000Y-121634250D01*
X320675000Y-130778250D02*
X320675000Y-132556250D01*
X320675000Y-132556250D02*
X318897000Y-132556250D01*
X309753000Y-132556250D02*
X307975000Y-132556250D01*
X307975000Y-132556250D02*
X307975000Y-130778250D01*
X307975000Y-121634250D02*
X307975000Y-119856250D01*
X103187500Y-138906250D02*
X104965500Y-138906250D01*
X114109500Y-138906250D02*
X115887500Y-138906250D01*
X115887500Y-138906250D02*
X115887500Y-140684250D01*
X115887500Y-149828250D02*
X115887500Y-151606250D01*
X115887500Y-151606250D02*
X114109500Y-151606250D01*
X104965500Y-151606250D02*
X103187500Y-151606250D01*
X103187500Y-151606250D02*
X103187500Y-149828250D01*
X103187500Y-140684250D02*
X103187500Y-138906250D01*
X122237500Y-138906250D02*
X124015500Y-138906250D01*
X133159500Y-138906250D02*
X134937500Y-138906250D01*
X134937500Y-138906250D02*
X134937500Y-140684250D01*
X134937500Y-149828250D02*
X134937500Y-151606250D01*
X134937500Y-151606250D02*
X133159500Y-151606250D01*
X124015500Y-151606250D02*
X122237500Y-151606250D01*
X122237500Y-151606250D02*
X122237500Y-149828250D01*
X122237500Y-140684250D02*
X122237500Y-138906250D01*
X141287500Y-138906250D02*
X143065500Y-138906250D01*
X152209500Y-138906250D02*
X153987500Y-138906250D01*
X153987500Y-138906250D02*
X153987500Y-140684250D01*
X153987500Y-149828250D02*
X153987500Y-151606250D01*
X153987500Y-151606250D02*
X152209500Y-151606250D01*
X143065500Y-151606250D02*
X141287500Y-151606250D01*
X141287500Y-151606250D02*
X141287500Y-149828250D01*
X141287500Y-140684250D02*
X141287500Y-138906250D01*
X160337500Y-138906250D02*
X162115500Y-138906250D01*
X171259500Y-138906250D02*
X173037500Y-138906250D01*
X173037500Y-138906250D02*
X173037500Y-140684250D01*
X173037500Y-149828250D02*
X173037500Y-151606250D01*
X173037500Y-151606250D02*
X171259500Y-151606250D01*
X162115500Y-151606250D02*
X160337500Y-151606250D01*
X160337500Y-151606250D02*
X160337500Y-149828250D01*
X160337500Y-140684250D02*
X160337500Y-138906250D01*
X179387500Y-138906250D02*
X181165500Y-138906250D01*
X190309500Y-138906250D02*
X192087500Y-138906250D01*
X192087500Y-138906250D02*
X192087500Y-140684250D01*
X192087500Y-149828250D02*
X192087500Y-151606250D01*
X192087500Y-151606250D02*
X190309500Y-151606250D01*
X181165500Y-151606250D02*
X179387500Y-151606250D01*
X179387500Y-151606250D02*
X179387500Y-149828250D01*
X179387500Y-140684250D02*
X179387500Y-138906250D01*
X198437500Y-138906250D02*
X200215500Y-138906250D01*
X209359500Y-138906250D02*
X211137500Y-138906250D01*
X211137500Y-138906250D02*
X211137500Y-140684250D01*
X211137500Y-149828250D02*
X211137500Y-151606250D01*
X211137500Y-151606250D02*
X209359500Y-151606250D01*
X200215500Y-151606250D02*
X198437500Y-151606250D01*
X198437500Y-151606250D02*
X198437500Y-149828250D01*
X198437500Y-140684250D02*
X198437500Y-138906250D01*
X217487500Y-138906250D02*
X219265500Y-138906250D01*
X228409500Y-138906250D02*
X230187500Y-138906250D01*
X230187500Y-138906250D02*
X230187500Y-140684250D01*
X230187500Y-149828250D02*
X230187500Y-151606250D01*
X230187500Y-151606250D02*
X228409500Y-151606250D01*
X219265500Y-151606250D02*
X217487500Y-151606250D01*
X217487500Y-151606250D02*
X217487500Y-149828250D01*
X217487500Y-140684250D02*
X217487500Y-138906250D01*
X236537500Y-138906250D02*
X238315500Y-138906250D01*
X247459500Y-138906250D02*
X249237500Y-138906250D01*
X249237500Y-138906250D02*
X249237500Y-140684250D01*
X249237500Y-149828250D02*
X249237500Y-151606250D01*
X249237500Y-151606250D02*
X247459500Y-151606250D01*
X238315500Y-151606250D02*
X236537500Y-151606250D01*
X236537500Y-151606250D02*
X236537500Y-149828250D01*
X236537500Y-140684250D02*
X236537500Y-138906250D01*
X255587500Y-138906250D02*
X257365500Y-138906250D01*
X266509500Y-138906250D02*
X268287500Y-138906250D01*
X268287500Y-138906250D02*
X268287500Y-140684250D01*
X268287500Y-149828250D02*
X268287500Y-151606250D01*
X268287500Y-151606250D02*
X266509500Y-151606250D01*
X257365500Y-151606250D02*
X255587500Y-151606250D01*
X255587500Y-151606250D02*
X255587500Y-149828250D01*
X255587500Y-140684250D02*
X255587500Y-138906250D01*
X274637500Y-138906250D02*
X276415500Y-138906250D01*
X285559500Y-138906250D02*
X287337500Y-138906250D01*
X287337500Y-138906250D02*
X287337500Y-140684250D01*
X287337500Y-149828250D02*
X287337500Y-151606250D01*
X287337500Y-151606250D02*
X285559500Y-151606250D01*
X276415500Y-151606250D02*
X274637500Y-151606250D01*
X274637500Y-151606250D02*
X274637500Y-149828250D01*
X274637500Y-140684250D02*
X274637500Y-138906250D01*
X293687500Y-138906250D02*
X295465500Y-138906250D01*
X304609500Y-138906250D02*
X306387500Y-138906250D01*
X306387500Y-138906250D02*
X306387500Y-140684250D01*
X306387500Y-149828250D02*
X306387500Y-151606250D01*
X306387500Y-151606250D02*
X304609500Y-151606250D01*
X295465500Y-151606250D02*
X293687500Y-151606250D01*
X293687500Y-151606250D02*
X293687500Y-149828250D01*
X293687500Y-140684250D02*
X293687500Y-138906250D01*
X112712500Y-157956250D02*
X114490500Y-157956250D01*
X123634500Y-157956250D02*
X125412500Y-157956250D01*
X125412500Y-157956250D02*
X125412500Y-159734250D01*
X125412500Y-168878250D02*
X125412500Y-170656250D01*
X125412500Y-170656250D02*
X123634500Y-170656250D01*
X114490500Y-170656250D02*
X112712500Y-170656250D01*
X112712500Y-170656250D02*
X112712500Y-168878250D01*
X112712500Y-159734250D02*
X112712500Y-157956250D01*
X131762500Y-157956250D02*
X133540500Y-157956250D01*
X142684500Y-157956250D02*
X144462500Y-157956250D01*
X144462500Y-157956250D02*
X144462500Y-159734250D01*
X144462500Y-168878250D02*
X144462500Y-170656250D01*
X144462500Y-170656250D02*
X142684500Y-170656250D01*
X133540500Y-170656250D02*
X131762500Y-170656250D01*
X131762500Y-170656250D02*
X131762500Y-168878250D01*
X131762500Y-159734250D02*
X131762500Y-157956250D01*
X150812500Y-157956250D02*
X152590500Y-157956250D01*
X161734500Y-157956250D02*
X163512500Y-157956250D01*
X163512500Y-157956250D02*
X163512500Y-159734250D01*
X163512500Y-168878250D02*
X163512500Y-170656250D01*
X163512500Y-170656250D02*
X161734500Y-170656250D01*
X152590500Y-170656250D02*
X150812500Y-170656250D01*
X150812500Y-170656250D02*
X150812500Y-168878250D01*
X150812500Y-159734250D02*
X150812500Y-157956250D01*
X169862500Y-157956250D02*
X171640500Y-157956250D01*
X180784500Y-157956250D02*
X182562500Y-157956250D01*
X182562500Y-157956250D02*
X182562500Y-159734250D01*
X182562500Y-168878250D02*
X182562500Y-170656250D01*
X182562500Y-170656250D02*
X180784500Y-170656250D01*
X171640500Y-170656250D02*
X169862500Y-170656250D01*
X169862500Y-170656250D02*
X169862500Y-168878250D01*
X169862500Y-159734250D02*
X169862500Y-157956250D01*
X188912500Y-157956250D02*
X190690500Y-157956250D01*
X199834500Y-157956250D02*
X201612500Y-157956250D01*
X201612500Y-157956250D02*
X201612500Y-159734250D01*
X201612500Y-168878250D02*
X201612500Y-170656250D01*
X201612500Y-170656250D02*
X199834500Y-170656250D01*
X190690500Y-170656250D02*
X188912500Y-170656250D01*
X188912500Y-170656250D02*
X188912500Y-168878250D01*
X188912500Y-159734250D02*
X188912500Y-157956250D01*
X207962500Y-157956250D02*
X209740500Y-157956250D01*
X218884500Y-157956250D02*
X220662500Y-157956250D01*
X220662500Y-157956250D02*
X220662500Y-159734250D01*
X220662500Y-168878250D02*
X220662500Y-170656250D01*
X220662500Y-170656250D02*
X218884500Y-170656250D01*
X209740500Y-170656250D02*
X207962500Y-170656250D01*
X207962500Y-170656250D02*
X207962500Y-168878250D01*
X207962500Y-159734250D02*
X207962500Y-157956250D01*
X227012500Y-157956250D02*
X228790500Y-157956250D01*
X237934500Y-157956250D02*
X239712500Y-157956250D01*
X239712500Y-157956250D02*
X239712500Y-159734250D01*
X239712500Y-168878250D02*
X239712500Y-170656250D01*
X239712500Y-170656250D02*
X237934500Y-170656250D01*
X228790500Y-170656250D02*
X227012500Y-170656250D01*
X227012500Y-170656250D02*
X227012500Y-168878250D01*
X227012500Y-159734250D02*
X227012500Y-157956250D01*
X246062500Y-157956250D02*
X247840500Y-157956250D01*
X256984500Y-157956250D02*
X258762500Y-157956250D01*
X258762500Y-157956250D02*
X258762500Y-159734250D01*
X258762500Y-168878250D02*
X258762500Y-170656250D01*
X258762500Y-170656250D02*
X256984500Y-170656250D01*
X247840500Y-170656250D02*
X246062500Y-170656250D01*
X246062500Y-170656250D02*
X246062500Y-168878250D01*
X246062500Y-159734250D02*
X246062500Y-157956250D01*
X265112500Y-157956250D02*
X266890500Y-157956250D01*
X276034500Y-157956250D02*
X277812500Y-157956250D01*
X277812500Y-157956250D02*
X277812500Y-159734250D01*
X277812500Y-168878250D02*
X277812500Y-170656250D01*
X277812500Y-170656250D02*
X276034500Y-170656250D01*
X266890500Y-170656250D02*
X265112500Y-170656250D01*
X265112500Y-170656250D02*
X265112500Y-168878250D01*
X265112500Y-159734250D02*
X265112500Y-157956250D01*
X284162500Y-157956250D02*
X285940500Y-157956250D01*
X295084500Y-157956250D02*
X296862500Y-157956250D01*
X296862500Y-157956250D02*
X296862500Y-159734250D01*
X296862500Y-168878250D02*
X296862500Y-170656250D01*
X296862500Y-170656250D02*
X295084500Y-170656250D01*
X285940500Y-170656250D02*
X284162500Y-170656250D01*
X284162500Y-170656250D02*
X284162500Y-168878250D01*
X284162500Y-159734250D02*
X284162500Y-157956250D01*
X327025000Y-157956250D02*
X328803000Y-157956250D01*
X337947000Y-157956250D02*
X339725000Y-157956250D01*
X339725000Y-157956250D02*
X339725000Y-159734250D01*
X339725000Y-168878250D02*
X339725000Y-170656250D01*
X339725000Y-170656250D02*
X337947000Y-170656250D01*
X328803000Y-170656250D02*
X327025000Y-170656250D01*
X327025000Y-170656250D02*
X327025000Y-168878250D01*
X327025000Y-159734250D02*
X327025000Y-157956250D01*
X103187500Y-177006250D02*
X104965500Y-177006250D01*
X114109500Y-177006250D02*
X115887500Y-177006250D01*
X115887500Y-177006250D02*
X115887500Y-178784250D01*
X115887500Y-187928250D02*
X115887500Y-189706250D01*
X115887500Y-189706250D02*
X114109500Y-189706250D01*
X104965500Y-189706250D02*
X103187500Y-189706250D01*
X103187500Y-189706250D02*
X103187500Y-187928250D01*
X103187500Y-178784250D02*
X103187500Y-177006250D01*
X298450000Y-177006250D02*
X300228000Y-177006250D01*
X309372000Y-177006250D02*
X311150000Y-177006250D01*
X311150000Y-177006250D02*
X311150000Y-178784250D01*
X311150000Y-187928250D02*
X311150000Y-189706250D01*
X311150000Y-189706250D02*
X309372000Y-189706250D01*
X300228000Y-189706250D02*
X298450000Y-189706250D01*
X298450000Y-189706250D02*
X298450000Y-187928250D01*
X298450000Y-178784250D02*
X298450000Y-177006250D01*
X336550000Y-100806250D02*
X338328000Y-100806250D01*
X347472000Y-100806250D02*
X349250000Y-100806250D01*
X349250000Y-100806250D02*
X349250000Y-102584250D01*
X349250000Y-111728250D02*
X349250000Y-113506250D01*
X349250000Y-113506250D02*
X347472000Y-113506250D01*
X338328000Y-113506250D02*
X336550000Y-113506250D01*
X336550000Y-113506250D02*
X336550000Y-111728250D01*
X336550000Y-102584250D02*
X336550000Y-100806250D01*
X88900000Y-100806250D02*
X90678000Y-100806250D01*
X99822000Y-100806250D02*
X101600000Y-100806250D01*
X101600000Y-100806250D02*
X101600000Y-102584250D01*
X101600000Y-111728250D02*
X101600000Y-113506250D01*
X101600000Y-113506250D02*
X99822000Y-113506250D01*
X90678000Y-113506250D02*
X88900000Y-113506250D01*
X88900000Y-113506250D02*
X88900000Y-111728250D01*
X88900000Y-102584250D02*
X88900000Y-100806250D01*
X76993750Y-138906250D02*
X78771750Y-138906250D01*
X87915750Y-138906250D02*
X89693750Y-138906250D01*
X89693750Y-138906250D02*
X89693750Y-140684250D01*
X89693750Y-149828250D02*
X89693750Y-151606250D01*
X89693750Y-151606250D02*
X87915750Y-151606250D01*
X78771750Y-151606250D02*
X76993750Y-151606250D01*
X76993750Y-151606250D02*
X76993750Y-149828250D01*
X76993750Y-140684250D02*
X76993750Y-138906250D01*
X86518750Y-157956250D02*
X88296750Y-157956250D01*
X97440750Y-157956250D02*
X99218750Y-157956250D01*
X99218750Y-157956250D02*
X99218750Y-159734250D01*
X99218750Y-168878250D02*
X99218750Y-170656250D01*
X99218750Y-170656250D02*
X97440750Y-170656250D01*
X88296750Y-170656250D02*
X86518750Y-170656250D01*
X86518750Y-170656250D02*
X86518750Y-168878250D01*
X86518750Y-159734250D02*
X86518750Y-157956250D01*
X305593750Y-157956250D02*
X307371750Y-157956250D01*
X316515750Y-157956250D02*
X318293750Y-157956250D01*
X318293750Y-157956250D02*
X318293750Y-159734250D01*
X318293750Y-168878250D02*
X318293750Y-170656250D01*
X318293750Y-170656250D02*
X316515750Y-170656250D01*
X307371750Y-170656250D02*
X305593750Y-170656250D01*
X305593750Y-170656250D02*
X305593750Y-168878250D01*
X305593750Y-159734250D02*
X305593750Y-157956250D01*
X281781250Y-177006250D02*
X283559250Y-177006250D01*
X292703250Y-177006250D02*
X294481250Y-177006250D01*
X294481250Y-177006250D02*
X294481250Y-178784250D01*
X294481250Y-187928250D02*
X294481250Y-189706250D01*
X294481250Y-189706250D02*
X292703250Y-189706250D01*
X283559250Y-189706250D02*
X281781250Y-189706250D01*
X281781250Y-189706250D02*
X281781250Y-187928250D01*
X281781250Y-178784250D02*
X281781250Y-177006250D01*
X124618750Y-177006250D02*
X126396750Y-177006250D01*
X135540750Y-177006250D02*
X137318750Y-177006250D01*
X137318750Y-177006250D02*
X137318750Y-178784250D01*
X137318750Y-187928250D02*
X137318750Y-189706250D01*
X137318750Y-189706250D02*
X135540750Y-189706250D01*
X126396750Y-189706250D02*
X124618750Y-189706250D01*
X124618750Y-189706250D02*
X124618750Y-187928250D01*
X124618750Y-178784250D02*
X124618750Y-177006250D01*
X74612500Y-119856250D02*
X76390500Y-119856250D01*
X85534500Y-119856250D02*
X87312500Y-119856250D01*
X87312500Y-119856250D02*
X87312500Y-121634250D01*
X87312500Y-130778250D02*
X87312500Y-132556250D01*
X87312500Y-132556250D02*
X85534500Y-132556250D01*
X76390500Y-132556250D02*
X74612500Y-132556250D01*
X74612500Y-132556250D02*
X74612500Y-130778250D01*
X74612500Y-121634250D02*
X74612500Y-119856250D01*
X127000000Y-177006250D02*
X128778000Y-177006250D01*
X137922000Y-177006250D02*
X139700000Y-177006250D01*
X139700000Y-177006250D02*
X139700000Y-178784250D01*
X139700000Y-187928250D02*
X139700000Y-189706250D01*
X139700000Y-189706250D02*
X137922000Y-189706250D01*
X128778000Y-189706250D02*
X127000000Y-189706250D01*
X127000000Y-189706250D02*
X127000000Y-187928250D01*
X127000000Y-178784250D02*
X127000000Y-177006250D01*
X274637500Y-177006250D02*
X276415500Y-177006250D01*
X285559500Y-177006250D02*
X287337500Y-177006250D01*
X287337500Y-177006250D02*
X287337500Y-178784250D01*
X287337500Y-187928250D02*
X287337500Y-189706250D01*
X287337500Y-189706250D02*
X285559500Y-189706250D01*
X276415500Y-189706250D02*
X274637500Y-189706250D01*
X274637500Y-189706250D02*
X274637500Y-187928250D01*
X274637500Y-178784250D02*
X274637500Y-177006250D01*
X331787500Y-119856250D02*
X333565500Y-119856250D01*
X342709500Y-119856250D02*
X344487500Y-119856250D01*
X344487500Y-119856250D02*
X344487500Y-121634250D01*
X344487500Y-130778250D02*
X344487500Y-132556250D01*
X344487500Y-132556250D02*
X342709500Y-132556250D01*
X333565500Y-132556250D02*
X331787500Y-132556250D01*
X331787500Y-132556250D02*
X331787500Y-130778250D01*
X331787500Y-121634250D02*
X331787500Y-119856250D01*
X269875000Y-177006250D02*
X271653000Y-177006250D01*
X280797000Y-177006250D02*
X282575000Y-177006250D01*
X282575000Y-177006250D02*
X282575000Y-178784250D01*
X282575000Y-187928250D02*
X282575000Y-189706250D01*
X282575000Y-189706250D02*
X280797000Y-189706250D01*
X271653000Y-189706250D02*
X269875000Y-189706250D01*
X269875000Y-189706250D02*
X269875000Y-187928250D01*
X269875000Y-178784250D02*
X269875000Y-177006250D01*
X207962500Y-177006250D02*
X209740500Y-177006250D01*
X218884500Y-177006250D02*
X220662500Y-177006250D01*
X220662500Y-177006250D02*
X220662500Y-178784250D01*
X220662500Y-187928250D02*
X220662500Y-189706250D01*
X220662500Y-189706250D02*
X218884500Y-189706250D01*
X209740500Y-189706250D02*
X207962500Y-189706250D01*
X207962500Y-189706250D02*
X207962500Y-187928250D01*
X207962500Y-178784250D02*
X207962500Y-177006250D01*
X203200000Y-177006250D02*
X204978000Y-177006250D01*
X214122000Y-177006250D02*
X215900000Y-177006250D01*
X215900000Y-177006250D02*
X215900000Y-178784250D01*
X215900000Y-187928250D02*
X215900000Y-189706250D01*
X215900000Y-189706250D02*
X214122000Y-189706250D01*
X204978000Y-189706250D02*
X203200000Y-189706250D01*
X203200000Y-189706250D02*
X203200000Y-187928250D01*
X203200000Y-178784250D02*
X203200000Y-177006250D01*
X200818750Y-177006250D02*
X202596750Y-177006250D01*
X211740750Y-177006250D02*
X213518750Y-177006250D01*
X213518750Y-177006250D02*
X213518750Y-178784250D01*
X213518750Y-187928250D02*
X213518750Y-189706250D01*
X213518750Y-189706250D02*
X211740750Y-189706250D01*
X202596750Y-189706250D02*
X200818750Y-189706250D01*
X200818750Y-189706250D02*
X200818750Y-187928250D01*
X200818750Y-178784250D02*
X200818750Y-177006250D01*
X346329000Y-155924250D02*
X346329000Y-137255250D01*
X346329000Y-137255250D02*
X339471000Y-137255250D01*
X339471000Y-137255250D02*
X339471000Y-155924250D01*
X339471000Y-155924250D02*
X346329000Y-155924250D01*
X160591500Y-194024250D02*
X160591500Y-175355250D01*
X160591500Y-175355250D02*
X153733500Y-175355250D01*
X153733500Y-175355250D02*
X153733500Y-194024250D01*
X153733500Y-194024250D02*
X160591500Y-194024250D01*
X260604000Y-194024250D02*
X260604000Y-175355250D01*
X260604000Y-175355250D02*
X253746000Y-175355250D01*
X253746000Y-175355250D02*
X253746000Y-194024250D01*
X253746000Y-194024250D02*
X260604000Y-194024250D01*
X155829000Y-194024250D02*
X155829000Y-175355250D01*
X155829000Y-175355250D02*
X148971000Y-175355250D01*
X148971000Y-175355250D02*
X148971000Y-194024250D01*
X148971000Y-194024250D02*
X155829000Y-194024250D01*
X270129000Y-194024250D02*
X270129000Y-175355250D01*
X270129000Y-175355250D02*
X263271000Y-175355250D01*
X263271000Y-175355250D02*
X263271000Y-194024250D01*
X263271000Y-194024250D02*
X270129000Y-194024250D01*
X255841500Y-194024250D02*
X255841500Y-175355250D01*
X255841500Y-175355250D02*
X248983500Y-175355250D01*
X248983500Y-175355250D02*
X248983500Y-194024250D01*
X248983500Y-194024250D02*
X255841500Y-194024250D01*
X322516500Y-155924250D02*
X322516500Y-137255250D01*
X322516500Y-137255250D02*
X315658500Y-137255250D01*
X315658500Y-137255250D02*
X315658500Y-155924250D01*
X315658500Y-155924250D02*
X322516500Y-155924250D01*
X324643750Y-138906250D02*
X326421750Y-138906250D01*
X335565750Y-138906250D02*
X337343750Y-138906250D01*
X337343750Y-138906250D02*
X337343750Y-140684250D01*
X337343750Y-149828250D02*
X337343750Y-151606250D01*
X337343750Y-151606250D02*
X335565750Y-151606250D01*
X326421750Y-151606250D02*
X324643750Y-151606250D01*
X324643750Y-151606250D02*
X324643750Y-149828250D01*
X324643750Y-140684250D02*
X324643750Y-138906250D01*
X81756250Y-157956250D02*
X83534250Y-157956250D01*
X92678250Y-157956250D02*
X94456250Y-157956250D01*
X94456250Y-157956250D02*
X94456250Y-159734250D01*
X94456250Y-168878250D02*
X94456250Y-170656250D01*
X94456250Y-170656250D02*
X92678250Y-170656250D01*
X83534250Y-170656250D02*
X81756250Y-170656250D01*
X81756250Y-170656250D02*
X81756250Y-168878250D01*
X81756250Y-159734250D02*
X81756250Y-157956250D01*
X336550000Y-157956250D02*
X338328000Y-157956250D01*
X347472000Y-157956250D02*
X349250000Y-157956250D01*
X349250000Y-157956250D02*
X349250000Y-159734250D01*
X349250000Y-168878250D02*
X349250000Y-170656250D01*
X349250000Y-170656250D02*
X347472000Y-170656250D01*
X338328000Y-170656250D02*
X336550000Y-170656250D01*
X336550000Y-170656250D02*
X336550000Y-168878250D01*
X336550000Y-159734250D02*
X336550000Y-157956250D01*
X310356250Y-157956250D02*
X312134250Y-157956250D01*
X321278250Y-157956250D02*
X323056250Y-157956250D01*
X323056250Y-157956250D02*
X323056250Y-159734250D01*
X323056250Y-168878250D02*
X323056250Y-170656250D01*
X323056250Y-170656250D02*
X321278250Y-170656250D01*
X312134250Y-170656250D02*
X310356250Y-170656250D01*
X310356250Y-170656250D02*
X310356250Y-168878250D01*
X310356250Y-159734250D02*
X310356250Y-157956250D01*
X188912500Y-177006250D02*
X190690500Y-177006250D01*
X199834500Y-177006250D02*
X201612500Y-177006250D01*
X201612500Y-177006250D02*
X201612500Y-178784250D01*
X201612500Y-187928250D02*
X201612500Y-189706250D01*
X201612500Y-189706250D02*
X199834500Y-189706250D01*
X190690500Y-189706250D02*
X188912500Y-189706250D01*
X188912500Y-189706250D02*
X188912500Y-187928250D01*
X188912500Y-178784250D02*
X188912500Y-177006250D01*
M02*
