M48
INCH,TZ
T1C0.067
T2C0.157
%
G90
G05
T1
X2.8Y-4.2188
X2.8937Y-5.7188
X2.9875Y-4.9688
X3.0812Y-5.7188
X3.2Y-4.2188
X3.2937Y-5.7188
X3.3875Y-4.9688
X3.4562Y-6.4688
X3.4812Y-5.7188
X3.55Y-4.2188
X3.8562Y-6.4688
X3.925Y-4.9688
X3.95Y-4.2188
X4.1125Y-5.7188
X4.1125Y-7.2188
X4.3Y-4.2188
X4.325Y-4.9688
X4.4875Y-6.4688
X4.5125Y-5.7188
X4.5125Y-7.2188
X4.675Y-4.9688
X4.7Y-4.2188
X4.8625Y-5.7188
X4.8875Y-6.4688
X4.9562Y-7.2188
X5.05Y-4.2188
X5.05Y-7.2188
X5.075Y-4.9688
X5.2375Y-6.4688
X5.2625Y-5.7188
X5.3563Y-7.2188
X5.425Y-4.9688
X5.45Y-4.2188
X5.45Y-7.2188
X5.6125Y-5.7188
X5.6375Y-6.4688
X5.8Y-4.2188
X5.825Y-4.9688
X5.9875Y-6.4688
X6.0125Y-5.7188
X6.175Y-4.9688
X6.2Y-4.2188
X6.3625Y-5.7188
X6.3875Y-6.4688
X6.55Y-4.2188
X6.575Y-4.9688
X6.7375Y-6.4688
X6.7625Y-5.7188
X6.925Y-4.9688
X6.95Y-4.2188
X7.1125Y-5.7188
X7.1375Y-6.4688
X7.3Y-4.2188
X7.325Y-4.9688
X7.4875Y-6.4688
X7.5125Y-5.7188
X7.675Y-4.9688
X7.7Y-4.2188
X7.8625Y-5.7188
X7.8875Y-6.4688
X7.9562Y-7.2188
X8.05Y-4.2188
X8.05Y-7.2188
X8.075Y-4.9688
X8.2375Y-6.4688
X8.2375Y-7.2188
X8.2625Y-5.7188
X8.3562Y-7.2188
X8.425Y-4.9688
X8.45Y-4.2188
X8.45Y-7.2188
X8.6125Y-5.7188
X8.6375Y-6.4688
X8.6375Y-7.2188
X8.8Y-4.2188
X8.825Y-4.9688
X8.9875Y-6.4688
X9.0125Y-5.7188
X9.175Y-4.9688
X9.2Y-4.2188
X9.3625Y-5.7188
X9.3875Y-6.4688
X9.55Y-4.2188
X9.575Y-4.9688
X9.7375Y-6.4688
X9.7625Y-5.7188
X9.925Y-4.9688
X9.95Y-4.2188
X10.1125Y-5.7188
X10.1375Y-6.4688
X10.3Y-4.2188
X10.325Y-4.9688
X10.4875Y-6.4688
X10.5125Y-5.7188
X10.675Y-4.9688
X10.675Y-7.2188
X10.7Y-4.2188
X10.8625Y-5.7188
X10.8625Y-7.2188
X10.8875Y-6.4688
X11.05Y-4.2188
X11.075Y-4.9688
X11.075Y-7.2188
X11.1437Y-7.2188
X11.2375Y-6.4688
X11.2625Y-5.7188
X11.2625Y-7.2188
X11.425Y-4.9688
X11.45Y-4.2188
X11.5437Y-7.2188
X11.6125Y-5.7188
X11.6125Y-7.2188
X11.6375Y-6.4688
X11.8Y-4.2188
X11.8Y-7.2188
X11.825Y-4.9688
X11.9875Y-7.2188
X12.0125Y-5.7188
X12.0125Y-7.2188
X12.0812Y-6.4688
X12.175Y-4.9688
X12.2Y-4.2188
X12.2Y-7.2188
X12.3875Y-7.2188
X12.4812Y-6.4688
X12.55Y-4.2188
X12.575Y-4.9688
X12.8312Y-5.7188
X12.925Y-6.4688
X12.95Y-4.2188
X13.1125Y-4.9688
X13.2312Y-5.7188
X13.3Y-4.2188
X13.325Y-6.4688
X13.5125Y-4.9688
X13.7Y-4.2188
T2
X3.Y-4.2188
X3.0938Y-5.7188
X3.1875Y-4.9688
X3.2812Y-5.7188
X3.6562Y-6.4688
X3.75Y-4.2188
X4.125Y-4.9688
X4.3125Y-5.7188
X4.3125Y-7.2188
X4.5Y-4.2188
X4.6875Y-6.4688
X4.875Y-4.9688
X5.0625Y-5.7188
X5.1562Y-7.2188
X5.25Y-4.2188
X5.25Y-7.2188
X5.4375Y-6.4688
X5.625Y-4.9688
X5.8125Y-5.7188
X6.Y-4.2188
X6.1875Y-6.4688
X6.375Y-4.9688
X6.5625Y-5.7188
X6.75Y-4.2188
X6.9375Y-6.4688
X7.125Y-4.9688
X7.3125Y-5.7188
X7.5Y-4.2188
X7.6875Y-6.4688
X7.875Y-4.9688
X8.0625Y-5.7188
X8.1562Y-7.2188
X8.25Y-4.2188
X8.25Y-7.2188
X8.4375Y-6.4688
X8.4375Y-7.2188
X8.625Y-4.9688
X8.8125Y-5.7188
X9.Y-4.2188
X9.1875Y-6.4688
X9.375Y-4.9688
X9.5625Y-5.7188
X9.75Y-4.2188
X9.9375Y-6.4688
X10.125Y-4.9688
X10.3125Y-5.7188
X10.5Y-4.2188
X10.6875Y-6.4688
X10.875Y-4.9688
X10.875Y-7.2188
X11.0625Y-5.7188
X11.0625Y-7.2188
X11.25Y-4.2188
X11.3438Y-7.2188
X11.4375Y-6.4688
X11.625Y-4.9688
X11.8125Y-5.7188
X11.8125Y-7.2188
X12.Y-4.2188
X12.Y-7.2188
X12.1875Y-7.2188
X12.2812Y-6.4688
X12.375Y-4.9688
X12.75Y-4.2188
X13.0312Y-5.7188
X13.125Y-6.4688
X13.3125Y-4.9688
X13.5Y-4.2188
T0
M30
