G04 #@! TF.FileFunction,Soldermask,Bot*
%FSLAX46Y46*%
G04 Gerber Fmt 4.6, Leading zero omitted, Abs format (unit mm)*
G04 Created by KiCad (PCBNEW 4.0.5+dfsg1-4) date Mon May  8 00:20:08 2017*
%MOMM*%
%LPD*%
G01*
G04 APERTURE LIST*
%ADD10C,0.100000*%
%ADD11R,1.900000X1.650000*%
%ADD12R,1.650000X1.900000*%
%ADD13R,1.600000X1.600000*%
%ADD14R,2.000000X2.000000*%
%ADD15C,2.000000*%
%ADD16R,0.900000X1.800000*%
%ADD17O,1.700000X4.200000*%
%ADD18R,1.900000X1.700000*%
%ADD19R,1.700000X1.900000*%
%ADD20R,1.400000X2.100000*%
%ADD21C,2.900000*%
%ADD22O,14.000000X5.600000*%
%ADD23C,4.400000*%
%ADD24C,6.500000*%
%ADD25R,2.200000X2.200000*%
%ADD26C,2.200000*%
G04 APERTURE END LIST*
D10*
G36*
X83537958Y-170633437D02*
X84209709Y-171305188D01*
X82866206Y-172648691D01*
X82194455Y-171976940D01*
X83537958Y-170633437D01*
X83537958Y-170633437D01*
G37*
G36*
X84103643Y-171199123D02*
X84775394Y-171870874D01*
X83431891Y-173214377D01*
X82760140Y-172542626D01*
X84103643Y-171199123D01*
X84103643Y-171199123D01*
G37*
G36*
X84669328Y-171764808D02*
X85341079Y-172436559D01*
X83997576Y-173780062D01*
X83325825Y-173108311D01*
X84669328Y-171764808D01*
X84669328Y-171764808D01*
G37*
G36*
X85235014Y-172330493D02*
X85906765Y-173002244D01*
X84563262Y-174345747D01*
X83891511Y-173673996D01*
X85235014Y-172330493D01*
X85235014Y-172330493D01*
G37*
G36*
X85800699Y-172896179D02*
X86472450Y-173567930D01*
X85128947Y-174911433D01*
X84457196Y-174239682D01*
X85800699Y-172896179D01*
X85800699Y-172896179D01*
G37*
G36*
X86366385Y-173461864D02*
X87038136Y-174133615D01*
X85694633Y-175477118D01*
X85022882Y-174805367D01*
X86366385Y-173461864D01*
X86366385Y-173461864D01*
G37*
G36*
X86932070Y-174027550D02*
X87603821Y-174699301D01*
X86260318Y-176042804D01*
X85588567Y-175371053D01*
X86932070Y-174027550D01*
X86932070Y-174027550D01*
G37*
G36*
X87497756Y-174593235D02*
X88169507Y-175264986D01*
X86826004Y-176608489D01*
X86154253Y-175936738D01*
X87497756Y-174593235D01*
X87497756Y-174593235D01*
G37*
G36*
X88063441Y-175158921D02*
X88735192Y-175830672D01*
X87391689Y-177174175D01*
X86719938Y-176502424D01*
X88063441Y-175158921D01*
X88063441Y-175158921D01*
G37*
G36*
X88629126Y-175724606D02*
X89300877Y-176396357D01*
X87957374Y-177739860D01*
X87285623Y-177068109D01*
X88629126Y-175724606D01*
X88629126Y-175724606D01*
G37*
G36*
X89194812Y-176290291D02*
X89866563Y-176962042D01*
X88523060Y-178305545D01*
X87851309Y-177633794D01*
X89194812Y-176290291D01*
X89194812Y-176290291D01*
G37*
G36*
X89866563Y-180037958D02*
X89194812Y-180709709D01*
X87851309Y-179366206D01*
X88523060Y-178694455D01*
X89866563Y-180037958D01*
X89866563Y-180037958D01*
G37*
G36*
X89300877Y-180603643D02*
X88629126Y-181275394D01*
X87285623Y-179931891D01*
X87957374Y-179260140D01*
X89300877Y-180603643D01*
X89300877Y-180603643D01*
G37*
G36*
X88735192Y-181169328D02*
X88063441Y-181841079D01*
X86719938Y-180497576D01*
X87391689Y-179825825D01*
X88735192Y-181169328D01*
X88735192Y-181169328D01*
G37*
G36*
X88169507Y-181735014D02*
X87497756Y-182406765D01*
X86154253Y-181063262D01*
X86826004Y-180391511D01*
X88169507Y-181735014D01*
X88169507Y-181735014D01*
G37*
G36*
X87603821Y-182300699D02*
X86932070Y-182972450D01*
X85588567Y-181628947D01*
X86260318Y-180957196D01*
X87603821Y-182300699D01*
X87603821Y-182300699D01*
G37*
G36*
X87038136Y-182866385D02*
X86366385Y-183538136D01*
X85022882Y-182194633D01*
X85694633Y-181522882D01*
X87038136Y-182866385D01*
X87038136Y-182866385D01*
G37*
G36*
X86472450Y-183432070D02*
X85800699Y-184103821D01*
X84457196Y-182760318D01*
X85128947Y-182088567D01*
X86472450Y-183432070D01*
X86472450Y-183432070D01*
G37*
G36*
X85906765Y-183997756D02*
X85235014Y-184669507D01*
X83891511Y-183326004D01*
X84563262Y-182654253D01*
X85906765Y-183997756D01*
X85906765Y-183997756D01*
G37*
G36*
X85341079Y-184563441D02*
X84669328Y-185235192D01*
X83325825Y-183891689D01*
X83997576Y-183219938D01*
X85341079Y-184563441D01*
X85341079Y-184563441D01*
G37*
G36*
X84775394Y-185129126D02*
X84103643Y-185800877D01*
X82760140Y-184457374D01*
X83431891Y-183785623D01*
X84775394Y-185129126D01*
X84775394Y-185129126D01*
G37*
G36*
X84209709Y-185694812D02*
X83537958Y-186366563D01*
X82194455Y-185023060D01*
X82866206Y-184351309D01*
X84209709Y-185694812D01*
X84209709Y-185694812D01*
G37*
G36*
X81133794Y-184351309D02*
X81805545Y-185023060D01*
X80462042Y-186366563D01*
X79790291Y-185694812D01*
X81133794Y-184351309D01*
X81133794Y-184351309D01*
G37*
G36*
X80568109Y-183785623D02*
X81239860Y-184457374D01*
X79896357Y-185800877D01*
X79224606Y-185129126D01*
X80568109Y-183785623D01*
X80568109Y-183785623D01*
G37*
G36*
X80002424Y-183219938D02*
X80674175Y-183891689D01*
X79330672Y-185235192D01*
X78658921Y-184563441D01*
X80002424Y-183219938D01*
X80002424Y-183219938D01*
G37*
G36*
X79436738Y-182654253D02*
X80108489Y-183326004D01*
X78764986Y-184669507D01*
X78093235Y-183997756D01*
X79436738Y-182654253D01*
X79436738Y-182654253D01*
G37*
G36*
X78871053Y-182088567D02*
X79542804Y-182760318D01*
X78199301Y-184103821D01*
X77527550Y-183432070D01*
X78871053Y-182088567D01*
X78871053Y-182088567D01*
G37*
G36*
X78305367Y-181522882D02*
X78977118Y-182194633D01*
X77633615Y-183538136D01*
X76961864Y-182866385D01*
X78305367Y-181522882D01*
X78305367Y-181522882D01*
G37*
G36*
X77739682Y-180957196D02*
X78411433Y-181628947D01*
X77067930Y-182972450D01*
X76396179Y-182300699D01*
X77739682Y-180957196D01*
X77739682Y-180957196D01*
G37*
G36*
X77173996Y-180391511D02*
X77845747Y-181063262D01*
X76502244Y-182406765D01*
X75830493Y-181735014D01*
X77173996Y-180391511D01*
X77173996Y-180391511D01*
G37*
G36*
X76608311Y-179825825D02*
X77280062Y-180497576D01*
X75936559Y-181841079D01*
X75264808Y-181169328D01*
X76608311Y-179825825D01*
X76608311Y-179825825D01*
G37*
G36*
X76042626Y-179260140D02*
X76714377Y-179931891D01*
X75370874Y-181275394D01*
X74699123Y-180603643D01*
X76042626Y-179260140D01*
X76042626Y-179260140D01*
G37*
G36*
X75476940Y-178694455D02*
X76148691Y-179366206D01*
X74805188Y-180709709D01*
X74133437Y-180037958D01*
X75476940Y-178694455D01*
X75476940Y-178694455D01*
G37*
G36*
X76148691Y-177633794D02*
X75476940Y-178305545D01*
X74133437Y-176962042D01*
X74805188Y-176290291D01*
X76148691Y-177633794D01*
X76148691Y-177633794D01*
G37*
G36*
X76714377Y-177068109D02*
X76042626Y-177739860D01*
X74699123Y-176396357D01*
X75370874Y-175724606D01*
X76714377Y-177068109D01*
X76714377Y-177068109D01*
G37*
G36*
X77280062Y-176502424D02*
X76608311Y-177174175D01*
X75264808Y-175830672D01*
X75936559Y-175158921D01*
X77280062Y-176502424D01*
X77280062Y-176502424D01*
G37*
G36*
X77845747Y-175936738D02*
X77173996Y-176608489D01*
X75830493Y-175264986D01*
X76502244Y-174593235D01*
X77845747Y-175936738D01*
X77845747Y-175936738D01*
G37*
G36*
X78411433Y-175371053D02*
X77739682Y-176042804D01*
X76396179Y-174699301D01*
X77067930Y-174027550D01*
X78411433Y-175371053D01*
X78411433Y-175371053D01*
G37*
G36*
X78977118Y-174805367D02*
X78305367Y-175477118D01*
X76961864Y-174133615D01*
X77633615Y-173461864D01*
X78977118Y-174805367D01*
X78977118Y-174805367D01*
G37*
G36*
X79542804Y-174239682D02*
X78871053Y-174911433D01*
X77527550Y-173567930D01*
X78199301Y-172896179D01*
X79542804Y-174239682D01*
X79542804Y-174239682D01*
G37*
G36*
X80108489Y-173673996D02*
X79436738Y-174345747D01*
X78093235Y-173002244D01*
X78764986Y-172330493D01*
X80108489Y-173673996D01*
X80108489Y-173673996D01*
G37*
G36*
X80674175Y-173108311D02*
X80002424Y-173780062D01*
X78658921Y-172436559D01*
X79330672Y-171764808D01*
X80674175Y-173108311D01*
X80674175Y-173108311D01*
G37*
G36*
X81239860Y-172542626D02*
X80568109Y-173214377D01*
X79224606Y-171870874D01*
X79896357Y-171199123D01*
X81239860Y-172542626D01*
X81239860Y-172542626D01*
G37*
G36*
X81805545Y-171976940D02*
X81133794Y-172648691D01*
X79790291Y-171305188D01*
X80462042Y-170633437D01*
X81805545Y-171976940D01*
X81805545Y-171976940D01*
G37*
D11*
X97600000Y-179350000D03*
X95100000Y-179350000D03*
D12*
X91275000Y-186800000D03*
X91275000Y-184300000D03*
D11*
X70375000Y-168325000D03*
X72875000Y-168325000D03*
D10*
G36*
X78472271Y-155861002D02*
X79638998Y-157027729D01*
X78295495Y-158371232D01*
X77128768Y-157204505D01*
X78472271Y-155861002D01*
X78472271Y-155861002D01*
G37*
G36*
X76704505Y-157628768D02*
X77871232Y-158795495D01*
X76527729Y-160138998D01*
X75361002Y-158972271D01*
X76704505Y-157628768D01*
X76704505Y-157628768D01*
G37*
D11*
X70500000Y-161000000D03*
X73000000Y-161000000D03*
X79000000Y-162500000D03*
X76500000Y-162500000D03*
X70500000Y-164750000D03*
X73000000Y-164750000D03*
X89250000Y-171000000D03*
X91750000Y-171000000D03*
D13*
X82675000Y-115750000D03*
X85825000Y-115750000D03*
D14*
X88150000Y-115750000D03*
D15*
X80350000Y-115750000D03*
D13*
X104500000Y-107925000D03*
X104500000Y-111075000D03*
D14*
X104500000Y-113400000D03*
D15*
X104500000Y-105600000D03*
D13*
X123825000Y-107962500D03*
X123825000Y-111112500D03*
D14*
X123825000Y-113437500D03*
D15*
X123825000Y-105637500D03*
D13*
X142875000Y-107962500D03*
X142875000Y-111112500D03*
D14*
X142875000Y-113437500D03*
D15*
X142875000Y-105637500D03*
D13*
X161925000Y-107962500D03*
X161925000Y-111112500D03*
D14*
X161925000Y-113437500D03*
D15*
X161925000Y-105637500D03*
D13*
X180975000Y-107962500D03*
X180975000Y-111112500D03*
D14*
X180975000Y-113437500D03*
D15*
X180975000Y-105637500D03*
D13*
X200025000Y-107962500D03*
X200025000Y-111112500D03*
D14*
X200025000Y-113437500D03*
D15*
X200025000Y-105637500D03*
D13*
X219075000Y-107962500D03*
X219075000Y-111112500D03*
D14*
X219075000Y-113437500D03*
D15*
X219075000Y-105637500D03*
D13*
X238125000Y-107962500D03*
X238125000Y-111112500D03*
D14*
X238125000Y-113437500D03*
D15*
X238125000Y-105637500D03*
D13*
X257175000Y-107962500D03*
X257175000Y-111112500D03*
D14*
X257175000Y-113437500D03*
D15*
X257175000Y-105637500D03*
D13*
X276225000Y-107962500D03*
X276225000Y-111112500D03*
D14*
X276225000Y-113437500D03*
D15*
X276225000Y-105637500D03*
D13*
X295275000Y-107962500D03*
X295275000Y-111112500D03*
D14*
X295275000Y-113437500D03*
D15*
X295275000Y-105637500D03*
D13*
X314325000Y-107962500D03*
X314325000Y-111112500D03*
D14*
X314325000Y-113437500D03*
D15*
X314325000Y-105637500D03*
D13*
X94675000Y-132750000D03*
X97825000Y-132750000D03*
D14*
X100150000Y-132750000D03*
D15*
X92350000Y-132750000D03*
D13*
X114300000Y-127012500D03*
X114300000Y-130162500D03*
D14*
X114300000Y-132487500D03*
D15*
X114300000Y-124687500D03*
D13*
X133350000Y-127012500D03*
X133350000Y-130162500D03*
D14*
X133350000Y-132487500D03*
D15*
X133350000Y-124687500D03*
D13*
X152400000Y-127012500D03*
X152400000Y-130162500D03*
D14*
X152400000Y-132487500D03*
D15*
X152400000Y-124687500D03*
D13*
X171450000Y-127012500D03*
X171450000Y-130162500D03*
D14*
X171450000Y-132487500D03*
D15*
X171450000Y-124687500D03*
D13*
X190500000Y-127012500D03*
X190500000Y-130162500D03*
D14*
X190500000Y-132487500D03*
D15*
X190500000Y-124687500D03*
D13*
X209550000Y-127012500D03*
X209550000Y-130162500D03*
D14*
X209550000Y-132487500D03*
D15*
X209550000Y-124687500D03*
D13*
X228600000Y-127012500D03*
X228600000Y-130162500D03*
D14*
X228600000Y-132487500D03*
D15*
X228600000Y-124687500D03*
D13*
X247650000Y-127012500D03*
X247650000Y-130162500D03*
D14*
X247650000Y-132487500D03*
D15*
X247650000Y-124687500D03*
D13*
X266700000Y-127012500D03*
X266700000Y-130162500D03*
D14*
X266700000Y-132487500D03*
D15*
X266700000Y-124687500D03*
D13*
X285750000Y-127012500D03*
X285750000Y-130162500D03*
D14*
X285750000Y-132487500D03*
D15*
X285750000Y-124687500D03*
D13*
X304800000Y-127012500D03*
X304800000Y-130162500D03*
D14*
X304800000Y-132487500D03*
D15*
X304800000Y-124687500D03*
D13*
X321468750Y-127012500D03*
X321468750Y-130162500D03*
D14*
X321468750Y-132487500D03*
D15*
X321468750Y-124687500D03*
D13*
X94925000Y-137750000D03*
X98075000Y-137750000D03*
D14*
X100400000Y-137750000D03*
D15*
X92600000Y-137750000D03*
D13*
X119000000Y-145925000D03*
X119000000Y-149075000D03*
D14*
X119000000Y-151400000D03*
D15*
X119000000Y-143600000D03*
D13*
X138112500Y-146062500D03*
X138112500Y-149212500D03*
D14*
X138112500Y-151537500D03*
D15*
X138112500Y-143737500D03*
D13*
X157162500Y-146062500D03*
X157162500Y-149212500D03*
D14*
X157162500Y-151537500D03*
D15*
X157162500Y-143737500D03*
D13*
X176212500Y-146062500D03*
X176212500Y-149212500D03*
D14*
X176212500Y-151537500D03*
D15*
X176212500Y-143737500D03*
D13*
X190900000Y-150800000D03*
X194050000Y-150800000D03*
D14*
X196375000Y-150800000D03*
D15*
X188575000Y-150800000D03*
D13*
X214312500Y-146062500D03*
X214312500Y-149212500D03*
D14*
X214312500Y-151537500D03*
D15*
X214312500Y-143737500D03*
D13*
X233362500Y-146062500D03*
X233362500Y-149212500D03*
D14*
X233362500Y-151537500D03*
D15*
X233362500Y-143737500D03*
D13*
X252412500Y-146062500D03*
X252412500Y-149212500D03*
D14*
X252412500Y-151537500D03*
D15*
X252412500Y-143737500D03*
D13*
X271462500Y-146062500D03*
X271462500Y-149212500D03*
D14*
X271462500Y-151537500D03*
D15*
X271462500Y-143737500D03*
D13*
X290512500Y-146062500D03*
X290512500Y-149212500D03*
D14*
X290512500Y-151537500D03*
D15*
X290512500Y-143737500D03*
D13*
X309562500Y-146062500D03*
X309562500Y-149212500D03*
D14*
X309562500Y-151537500D03*
D15*
X309562500Y-143737500D03*
D13*
X342750000Y-144175000D03*
X342750000Y-147325000D03*
D14*
X342750000Y-149650000D03*
D15*
X342750000Y-141850000D03*
D13*
X102393750Y-165112500D03*
X102393750Y-168262500D03*
D14*
X102393750Y-170587500D03*
D15*
X102393750Y-162787500D03*
D13*
X128587500Y-165112500D03*
X128587500Y-168262500D03*
D14*
X128587500Y-170587500D03*
D15*
X128587500Y-162787500D03*
D13*
X147637500Y-165112500D03*
X147637500Y-168262500D03*
D14*
X147637500Y-170587500D03*
D15*
X147637500Y-162787500D03*
D13*
X166687500Y-165112500D03*
X166687500Y-168262500D03*
D14*
X166687500Y-170587500D03*
D15*
X166687500Y-162787500D03*
D13*
X185737500Y-165112500D03*
X185737500Y-168262500D03*
D14*
X185737500Y-170587500D03*
D15*
X185737500Y-162787500D03*
D13*
X204787500Y-165112500D03*
X204787500Y-168262500D03*
D14*
X204787500Y-170587500D03*
D15*
X204787500Y-162787500D03*
D13*
X223837500Y-165112500D03*
X223837500Y-168262500D03*
D14*
X223837500Y-170587500D03*
D15*
X223837500Y-162787500D03*
D13*
X242887500Y-165112500D03*
X242887500Y-168262500D03*
D14*
X242887500Y-170587500D03*
D15*
X242887500Y-162787500D03*
D13*
X261937500Y-165112500D03*
X261937500Y-168262500D03*
D14*
X261937500Y-170587500D03*
D15*
X261937500Y-162787500D03*
D13*
X280987500Y-165112500D03*
X280987500Y-168262500D03*
D14*
X280987500Y-170587500D03*
D15*
X280987500Y-162787500D03*
D13*
X300037500Y-165112500D03*
X300037500Y-168262500D03*
D14*
X300037500Y-170587500D03*
D15*
X300037500Y-162787500D03*
D13*
X321468750Y-165112500D03*
X321468750Y-168262500D03*
D14*
X321468750Y-170587500D03*
D15*
X321468750Y-162787500D03*
D13*
X340518750Y-165112500D03*
X340518750Y-168262500D03*
D14*
X340518750Y-170587500D03*
D15*
X340518750Y-162787500D03*
D13*
X119000000Y-183425000D03*
X119000000Y-186575000D03*
D14*
X119000000Y-188900000D03*
D15*
X119000000Y-181100000D03*
D13*
X143000000Y-182925000D03*
X143000000Y-186075000D03*
D14*
X143000000Y-188400000D03*
D15*
X143000000Y-180600000D03*
D13*
X224750000Y-184425000D03*
X224750000Y-187575000D03*
D14*
X224750000Y-189900000D03*
D15*
X224750000Y-182100000D03*
D13*
X264875000Y-184725000D03*
X264875000Y-187875000D03*
D14*
X264875000Y-190200000D03*
D15*
X264875000Y-182400000D03*
D13*
X321325000Y-180600000D03*
X321325000Y-183750000D03*
D14*
X321325000Y-186075000D03*
D15*
X321325000Y-178275000D03*
D13*
X344650000Y-115475000D03*
X341500000Y-115475000D03*
D14*
X339175000Y-115475000D03*
D15*
X346975000Y-115475000D03*
D13*
X333375000Y-107962500D03*
X333375000Y-111112500D03*
D14*
X333375000Y-113437500D03*
D15*
X333375000Y-105637500D03*
D13*
X347662500Y-124631250D03*
X347662500Y-127781250D03*
D14*
X347662500Y-130106250D03*
D15*
X347662500Y-122306250D03*
D16*
X84150000Y-102750000D03*
X84950000Y-102750000D03*
X85750000Y-102750000D03*
X86550000Y-102750000D03*
X87350000Y-102750000D03*
D17*
X82100000Y-100350000D03*
X89400000Y-100350000D03*
D18*
X90900000Y-152500000D03*
X93600000Y-152500000D03*
D19*
X76000000Y-171350000D03*
X76000000Y-168650000D03*
D10*
G36*
X104974695Y-160477386D02*
X103772614Y-159275305D01*
X105116117Y-157931802D01*
X106318198Y-159133883D01*
X104974695Y-160477386D01*
X104974695Y-160477386D01*
G37*
G36*
X106883883Y-158568198D02*
X105681802Y-157366117D01*
X107025305Y-156022614D01*
X108227386Y-157224695D01*
X106883883Y-158568198D01*
X106883883Y-158568198D01*
G37*
G36*
X110775305Y-159772614D02*
X111977386Y-160974695D01*
X110633883Y-162318198D01*
X109431802Y-161116117D01*
X110775305Y-159772614D01*
X110775305Y-159772614D01*
G37*
G36*
X108866117Y-161681802D02*
X110068198Y-162883883D01*
X108724695Y-164227386D01*
X107522614Y-163025305D01*
X108866117Y-161681802D01*
X108866117Y-161681802D01*
G37*
D20*
X97150000Y-148650000D03*
X97150000Y-142350000D03*
X93350000Y-148650000D03*
X93350000Y-142350000D03*
D21*
X327994203Y-141256296D02*
X327183297Y-142716204D01*
X333533474Y-140176922D02*
X333494026Y-140755578D01*
D22*
X66750000Y-153750000D03*
X352250000Y-153750000D03*
D23*
X92275000Y-125300000D03*
D24*
X327050000Y-125375000D03*
X257325000Y-182725000D03*
X195225000Y-144775000D03*
D10*
G36*
X92898349Y-184931802D02*
X94029720Y-183800431D01*
X95302513Y-185073224D01*
X94171142Y-186204595D01*
X92898349Y-184931802D01*
X92898349Y-184931802D01*
G37*
G36*
X94595405Y-186628858D02*
X95726776Y-185497487D01*
X96999569Y-186770280D01*
X95868198Y-187901651D01*
X94595405Y-186628858D01*
X94595405Y-186628858D01*
G37*
G36*
X94100431Y-183729720D02*
X95231802Y-182598349D01*
X96504595Y-183871142D01*
X95373224Y-185002513D01*
X94100431Y-183729720D01*
X94100431Y-183729720D01*
G37*
G36*
X95797487Y-185426776D02*
X96928858Y-184295405D01*
X98201651Y-185568198D01*
X97070280Y-186699569D01*
X95797487Y-185426776D01*
X95797487Y-185426776D01*
G37*
D25*
X75000000Y-111750000D03*
D26*
X77540000Y-111750000D03*
D25*
X77250000Y-149750000D03*
D26*
X79790000Y-149750000D03*
D18*
X74900000Y-116000000D03*
X77600000Y-116000000D03*
D19*
X84000000Y-158350000D03*
X84000000Y-155650000D03*
D25*
X84750000Y-149750000D03*
D26*
X82210000Y-149750000D03*
D21*
X92250453Y-103156296D02*
X91439547Y-104616204D01*
X97789724Y-102076922D02*
X97750276Y-102655578D01*
X339900453Y-103156296D02*
X339089547Y-104616204D01*
X345439724Y-102076922D02*
X345400276Y-102655578D01*
X301800453Y-179356296D02*
X300989547Y-180816204D01*
X307339724Y-178276922D02*
X307300276Y-178855578D01*
X106537953Y-179356296D02*
X105727047Y-180816204D01*
X112077224Y-178276922D02*
X112037776Y-178855578D01*
X330375453Y-160306296D02*
X329564547Y-161766204D01*
X335914724Y-159226922D02*
X335875276Y-159805578D01*
X287512953Y-160306296D02*
X286702047Y-161766204D01*
X293052224Y-159226922D02*
X293012776Y-159805578D01*
X268462953Y-160306296D02*
X267652047Y-161766204D01*
X274002224Y-159226922D02*
X273962776Y-159805578D01*
X249412953Y-160306296D02*
X248602047Y-161766204D01*
X254952224Y-159226922D02*
X254912776Y-159805578D01*
X230362953Y-160306296D02*
X229552047Y-161766204D01*
X235902224Y-159226922D02*
X235862776Y-159805578D01*
X211312953Y-160306296D02*
X210502047Y-161766204D01*
X216852224Y-159226922D02*
X216812776Y-159805578D01*
X192262953Y-160306296D02*
X191452047Y-161766204D01*
X197802224Y-159226922D02*
X197762776Y-159805578D01*
X173212953Y-160306296D02*
X172402047Y-161766204D01*
X178752224Y-159226922D02*
X178712776Y-159805578D01*
X154162953Y-160306296D02*
X153352047Y-161766204D01*
X159702224Y-159226922D02*
X159662776Y-159805578D01*
X135112953Y-160306296D02*
X134302047Y-161766204D01*
X140652224Y-159226922D02*
X140612776Y-159805578D01*
X116062953Y-160306296D02*
X115252047Y-161766204D01*
X121602224Y-159226922D02*
X121562776Y-159805578D01*
X297037953Y-141256296D02*
X296227047Y-142716204D01*
X302577224Y-140176922D02*
X302537776Y-140755578D01*
X277987953Y-141256296D02*
X277177047Y-142716204D01*
X283527224Y-140176922D02*
X283487776Y-140755578D01*
X258937953Y-141256296D02*
X258127047Y-142716204D01*
X264477224Y-140176922D02*
X264437776Y-140755578D01*
X239887953Y-141256296D02*
X239077047Y-142716204D01*
X245427224Y-140176922D02*
X245387776Y-140755578D01*
X220837953Y-141256296D02*
X220027047Y-142716204D01*
X226377224Y-140176922D02*
X226337776Y-140755578D01*
X201787953Y-141256296D02*
X200977047Y-142716204D01*
X207327224Y-140176922D02*
X207287776Y-140755578D01*
X182737953Y-141256296D02*
X181927047Y-142716204D01*
X188277224Y-140176922D02*
X188237776Y-140755578D01*
X163687953Y-141256296D02*
X162877047Y-142716204D01*
X169227224Y-140176922D02*
X169187776Y-140755578D01*
X144637953Y-141256296D02*
X143827047Y-142716204D01*
X150177224Y-140176922D02*
X150137776Y-140755578D01*
X125587953Y-141256296D02*
X124777047Y-142716204D01*
X131127224Y-140176922D02*
X131087776Y-140755578D01*
X106537953Y-141256296D02*
X105727047Y-142716204D01*
X112077224Y-140176922D02*
X112037776Y-140755578D01*
X311325453Y-122206296D02*
X310514547Y-123666204D01*
X316864724Y-121126922D02*
X316825276Y-121705578D01*
X292275453Y-122206296D02*
X291464547Y-123666204D01*
X297814724Y-121126922D02*
X297775276Y-121705578D01*
X273225453Y-122206296D02*
X272414547Y-123666204D01*
X278764724Y-121126922D02*
X278725276Y-121705578D01*
X254175453Y-122206296D02*
X253364547Y-123666204D01*
X259714724Y-121126922D02*
X259675276Y-121705578D01*
X235125453Y-122206296D02*
X234314547Y-123666204D01*
X240664724Y-121126922D02*
X240625276Y-121705578D01*
X216075453Y-122206296D02*
X215264547Y-123666204D01*
X221614724Y-121126922D02*
X221575276Y-121705578D01*
X197025453Y-122206296D02*
X196214547Y-123666204D01*
X202564724Y-121126922D02*
X202525276Y-121705578D01*
X177975453Y-122206296D02*
X177164547Y-123666204D01*
X183514724Y-121126922D02*
X183475276Y-121705578D01*
X158925453Y-122206296D02*
X158114547Y-123666204D01*
X164464724Y-121126922D02*
X164425276Y-121705578D01*
X139875453Y-122206296D02*
X139064547Y-123666204D01*
X145414724Y-121126922D02*
X145375276Y-121705578D01*
X120825453Y-122206296D02*
X120014547Y-123666204D01*
X126364724Y-121126922D02*
X126325276Y-121705578D01*
X101775453Y-122206296D02*
X100964547Y-123666204D01*
X107314724Y-121126922D02*
X107275276Y-121705578D01*
X301800453Y-103156296D02*
X300989547Y-104616204D01*
X307339724Y-102076922D02*
X307300276Y-102655578D01*
X282750453Y-103156296D02*
X281939547Y-104616204D01*
X288289724Y-102076922D02*
X288250276Y-102655578D01*
X263700453Y-103156296D02*
X262889547Y-104616204D01*
X269239724Y-102076922D02*
X269200276Y-102655578D01*
X244650453Y-103156296D02*
X243839547Y-104616204D01*
X250189724Y-102076922D02*
X250150276Y-102655578D01*
X225600453Y-103156296D02*
X224789547Y-104616204D01*
X231139724Y-102076922D02*
X231100276Y-102655578D01*
X206550453Y-103156296D02*
X205739547Y-104616204D01*
X212089724Y-102076922D02*
X212050276Y-102655578D01*
X187500453Y-103156296D02*
X186689547Y-104616204D01*
X193039724Y-102076922D02*
X193000276Y-102655578D01*
X168450453Y-103156296D02*
X167639547Y-104616204D01*
X173989724Y-102076922D02*
X173950276Y-102655578D01*
X149400453Y-103156296D02*
X148589547Y-104616204D01*
X154939724Y-102076922D02*
X154900276Y-102655578D01*
X130350453Y-103156296D02*
X129539547Y-104616204D01*
X135889724Y-102076922D02*
X135850276Y-102655578D01*
X111300453Y-103156296D02*
X110489547Y-104616204D01*
X116839724Y-102076922D02*
X116800276Y-102655578D01*
X73200453Y-103156296D02*
X72389547Y-104616204D01*
X78739724Y-102076922D02*
X78700276Y-102655578D01*
X320850453Y-103156296D02*
X320039547Y-104616204D01*
X326389724Y-102076922D02*
X326350276Y-102655578D01*
X75581703Y-141256296D02*
X74770797Y-142716204D01*
X81120974Y-140176922D02*
X81081526Y-140755578D01*
X127969203Y-179356296D02*
X127158297Y-180816204D01*
X133508474Y-178276922D02*
X133469026Y-178855578D01*
X285131703Y-179356296D02*
X284320797Y-180816204D01*
X290670974Y-178276922D02*
X290631526Y-178855578D01*
X306562953Y-179356296D02*
X305752047Y-180816204D01*
X312102224Y-178276922D02*
X312062776Y-178855578D01*
X297037953Y-179356296D02*
X296227047Y-180816204D01*
X302577224Y-178276922D02*
X302537776Y-178855578D01*
X77962953Y-122206296D02*
X77152047Y-123666204D01*
X83502224Y-121126922D02*
X83462776Y-121705578D01*
X130350453Y-179356296D02*
X129539547Y-180816204D01*
X135889724Y-178276922D02*
X135850276Y-178855578D01*
X277987953Y-179356296D02*
X277177047Y-180816204D01*
X283527224Y-178276922D02*
X283487776Y-178855578D01*
X335137953Y-122206296D02*
X334327047Y-123666204D01*
X340677224Y-121126922D02*
X340637776Y-121705578D01*
X273225453Y-179356296D02*
X272414547Y-180816204D01*
X278764724Y-178276922D02*
X278725276Y-178855578D01*
X89869203Y-160306296D02*
X89058297Y-161766204D01*
X95408474Y-159226922D02*
X95369026Y-159805578D01*
X80344203Y-141256296D02*
X79533297Y-142716204D01*
X85883474Y-140176922D02*
X85844026Y-140755578D01*
X211312953Y-179356296D02*
X210502047Y-180816204D01*
X216852224Y-178276922D02*
X216812776Y-178855578D01*
X308944203Y-160306296D02*
X308133297Y-161766204D01*
X314483474Y-159226922D02*
X314444026Y-159805578D01*
X204169203Y-179356296D02*
X203358297Y-180816204D01*
X209708474Y-178276922D02*
X209669026Y-178855578D01*
X206550453Y-179356296D02*
X205739547Y-180816204D01*
X212089724Y-178276922D02*
X212050276Y-178855578D01*
M02*
