M48
INCH,TZ
T1C0.016
T2C0.028
T3C0.035
T4C0.059
T5C0.087
T6C0.098
T7C0.126
%
G90
G05
T1
X3.0512Y-7.3819
X3.061Y-5.9154
X3.1988Y-7.1555
X3.4646Y-7.3917
X3.4941Y-7.372
X3.5138Y-6.8307
X3.5433Y-7.3819
X3.6122Y-7.0965
X3.6516Y-6.8524
X3.6516Y-7.0276
X3.8583Y-6.9291
X3.9665Y-6.8996
X4.1142Y-6.752
X4.875Y-4.466
X11.0625Y-6.6245
T2
X3.1634Y-4.5571
X3.4705Y-4.5571
X3.6358Y-5.2264
X3.6457Y-5.4232
X3.9429Y-5.2264
X3.9528Y-5.4232
X4.0312Y-6.409
X4.0312Y-6.716
X4.1142Y-4.1575
X4.1142Y-4.4646
X4.5Y-4.909
X4.5Y-5.216
X4.685Y-5.6535
X4.685Y-5.9606
X4.685Y-7.1299
X4.685Y-7.437
X4.875Y-4.159
X4.875Y-4.466
X5.0625Y-6.409
X5.0625Y-6.716
X5.25Y-4.909
X5.25Y-5.216
X5.4375Y-5.659
X5.4375Y-5.966
X5.625Y-4.159
X5.625Y-4.466
X5.6299Y-7.1102
X5.6299Y-7.4173
X5.8125Y-6.409
X5.8125Y-6.716
X6.Y-4.909
X6.Y-5.216
X6.1875Y-5.659
X6.1875Y-5.966
X6.375Y-4.159
X6.375Y-4.466
X6.5625Y-6.409
X6.5625Y-6.716
X6.75Y-4.909
X6.75Y-5.216
X6.9375Y-5.659
X6.9375Y-5.966
X7.125Y-4.159
X7.125Y-4.466
X7.3125Y-6.409
X7.3125Y-6.716
X7.4242Y-5.937
X7.5Y-4.909
X7.5Y-5.216
X7.7313Y-5.937
X7.875Y-4.159
X7.875Y-4.466
X8.0625Y-6.409
X8.0625Y-6.716
X8.25Y-4.909
X8.25Y-5.216
X8.4375Y-5.659
X8.4375Y-5.966
X8.625Y-4.159
X8.625Y-4.466
X8.8125Y-6.409
X8.8125Y-6.716
X8.8484Y-7.1693
X8.8484Y-7.4764
X9.Y-4.909
X9.Y-5.216
X9.1875Y-5.659
X9.1875Y-5.966
X9.375Y-4.159
X9.375Y-4.466
X9.5625Y-6.409
X9.5625Y-6.716
X9.75Y-4.909
X9.75Y-5.216
X9.9375Y-5.659
X9.9375Y-5.966
X10.125Y-4.159
X10.125Y-4.466
X10.3125Y-6.409
X10.3125Y-6.716
X10.4281Y-7.1811
X10.4281Y-7.4882
X10.5Y-4.909
X10.5Y-5.216
X10.6875Y-5.659
X10.6875Y-5.966
X10.875Y-4.159
X10.875Y-4.466
X11.0625Y-6.409
X11.0625Y-6.716
X11.25Y-4.909
X11.25Y-5.216
X11.4375Y-5.659
X11.4375Y-5.966
X11.625Y-4.159
X11.625Y-4.466
X11.8125Y-6.409
X11.8125Y-6.716
X12.Y-4.909
X12.Y-5.216
X12.1875Y-5.659
X12.1875Y-5.966
X12.375Y-4.159
X12.375Y-4.466
X12.6506Y-7.0187
X12.6506Y-7.3258
X12.6562Y-4.909
X12.6562Y-5.216
X12.6562Y-6.409
X12.6562Y-6.716
X13.125Y-4.159
X13.125Y-4.466
X13.3533Y-4.5463
X13.4062Y-6.409
X13.4062Y-6.716
X13.4941Y-5.5846
X13.4941Y-5.8917
X13.6604Y-4.5463
X13.6875Y-4.8152
X13.6875Y-5.1223
T3
X2.9528Y-4.3996
X3.0413Y-5.8957
X3.0528Y-4.3996
X3.1413Y-5.8957
X3.2366Y-5.8957
X3.3366Y-5.8957
T7
X3.6329Y-4.9331
T2
X3.2323Y-3.9016G85X3.2323Y-4.
G05
X3.5197Y-3.9016G85X3.5197Y-4.
G05
T4
X2.8819Y-4.0613G85X2.85Y-4.1187
G05
X2.9757Y-5.5613G85X2.9437Y-5.6187
G05
X3.0694Y-4.8113G85X3.0375Y-4.8687
G05
X3.1Y-4.0188G85X3.0984Y-4.0416
G05
X3.1632Y-5.5613G85X3.1312Y-5.6187
G05
X3.1937Y-5.5188G85X3.1922Y-5.5416
G05
X3.2875Y-4.7688G85X3.2859Y-4.7916
G05
X3.3812Y-5.5188G85X3.3797Y-5.5416
G05
X3.5382Y-6.3113G85X3.5062Y-6.3687
G05
X3.6319Y-4.0613G85X3.6Y-4.1187
G05
X3.7562Y-6.2688G85X3.7547Y-6.2916
G05
X3.85Y-4.0188G85X3.8484Y-4.0416
G05
X4.0069Y-4.8113G85X3.975Y-4.8687
G05
X4.1944Y-5.5613G85X4.1625Y-5.6187
G05
X4.1944Y-7.0613G85X4.1625Y-7.1187
G05
X4.225Y-4.7688G85X4.2234Y-4.7916
G05
X4.3819Y-4.0613G85X4.35Y-4.1187
G05
X4.4125Y-5.5188G85X4.4109Y-5.5416
G05
X4.4125Y-7.0188G85X4.4109Y-7.0416
G05
X4.5694Y-6.3113G85X4.5375Y-6.3687
G05
X4.6Y-4.0188G85X4.5984Y-4.0416
G05
X4.7569Y-4.8113G85X4.725Y-4.8687
G05
X4.7875Y-6.2688G85X4.7859Y-6.2916
G05
X4.9444Y-5.5613G85X4.9125Y-5.6187
G05
X4.975Y-4.7688G85X4.9734Y-4.7916
G05
X5.0382Y-7.0613G85X5.0062Y-7.1187
G05
X5.1319Y-4.0613G85X5.1Y-4.1187
G05
X5.1319Y-7.0613G85X5.1Y-7.1187
G05
X5.1625Y-5.5188G85X5.1609Y-5.5416
G05
X5.2562Y-7.0188G85X5.2547Y-7.0416
G05
X5.3194Y-6.3113G85X5.2875Y-6.3687
G05
X5.35Y-4.0188G85X5.3484Y-4.0416
G05
X5.35Y-7.0188G85X5.3484Y-7.0416
G05
X5.5069Y-4.8113G85X5.475Y-4.8687
G05
X5.5375Y-6.2688G85X5.5359Y-6.2916
G05
X5.6944Y-5.5613G85X5.6625Y-5.6187
G05
X5.725Y-4.7688G85X5.7234Y-4.7916
G05
X5.8819Y-4.0613G85X5.85Y-4.1187
G05
X5.9125Y-5.5188G85X5.9109Y-5.5416
G05
X6.0694Y-6.3113G85X6.0375Y-6.3687
G05
X6.1Y-4.0188G85X6.0984Y-4.0416
G05
X6.2569Y-4.8113G85X6.225Y-4.8687
G05
X6.2875Y-6.2688G85X6.2859Y-6.2916
G05
X6.4444Y-5.5613G85X6.4125Y-5.6187
G05
X6.475Y-4.7688G85X6.4734Y-4.7916
G05
X6.6319Y-4.0613G85X6.6Y-4.1187
G05
X6.6625Y-5.5188G85X6.6609Y-5.5416
G05
X6.8194Y-6.3113G85X6.7875Y-6.3687
G05
X6.85Y-4.0188G85X6.8484Y-4.0416
G05
X7.0069Y-4.8113G85X6.975Y-4.8687
G05
X7.0375Y-6.2688G85X7.0359Y-6.2916
G05
X7.1944Y-5.5613G85X7.1625Y-5.6187
G05
X7.225Y-4.7688G85X7.2234Y-4.7916
G05
X7.3819Y-4.0613G85X7.35Y-4.1187
G05
X7.4125Y-5.5188G85X7.4109Y-5.5416
G05
X7.5694Y-6.3113G85X7.5375Y-6.3687
G05
X7.6Y-4.0188G85X7.5984Y-4.0416
G05
X7.7569Y-4.8113G85X7.725Y-4.8687
G05
X7.7875Y-6.2688G85X7.7859Y-6.2916
G05
X7.9444Y-5.5613G85X7.9125Y-5.6187
G05
X7.975Y-4.7688G85X7.9734Y-4.7916
G05
X8.0382Y-7.0613G85X8.0062Y-7.1187
G05
X8.1319Y-4.0613G85X8.1Y-4.1187
G05
X8.1319Y-7.0613G85X8.1Y-7.1187
G05
X8.1625Y-5.5188G85X8.1609Y-5.5416
G05
X8.2562Y-7.0188G85X8.2547Y-7.0416
G05
X8.3194Y-6.3113G85X8.2875Y-6.3687
G05
X8.3194Y-7.0613G85X8.2875Y-7.1187
G05
X8.35Y-4.0188G85X8.3484Y-4.0416
G05
X8.35Y-7.0188G85X8.3484Y-7.0416
G05
X8.5069Y-4.8113G85X8.475Y-4.8687
G05
X8.5375Y-6.2688G85X8.5359Y-6.2916
G05
X8.5375Y-7.0188G85X8.5359Y-7.0416
G05
X8.6944Y-5.5613G85X8.6625Y-5.6187
G05
X8.725Y-4.7688G85X8.7234Y-4.7916
G05
X8.8819Y-4.0613G85X8.85Y-4.1187
G05
X8.9125Y-5.5188G85X8.9109Y-5.5416
G05
X9.0694Y-6.3113G85X9.0375Y-6.3687
G05
X9.1Y-4.0188G85X9.0984Y-4.0416
G05
X9.2569Y-4.8113G85X9.225Y-4.8687
G05
X9.2875Y-6.2688G85X9.2859Y-6.2916
G05
X9.4444Y-5.5613G85X9.4125Y-5.6187
G05
X9.475Y-4.7688G85X9.4734Y-4.7916
G05
X9.6319Y-4.0613G85X9.6Y-4.1187
G05
X9.6625Y-5.5188G85X9.6609Y-5.5416
G05
X9.8194Y-6.3113G85X9.7875Y-6.3687
G05
X9.85Y-4.0188G85X9.8484Y-4.0416
G05
X10.0069Y-4.8113G85X9.975Y-4.8687
G05
X10.0375Y-6.2688G85X10.0359Y-6.2916
G05
X10.1944Y-5.5613G85X10.1625Y-5.6187
G05
X10.225Y-4.7688G85X10.2234Y-4.7916
G05
X10.3819Y-4.0613G85X10.35Y-4.1187
G05
X10.4125Y-5.5188G85X10.4109Y-5.5416
G05
X10.5694Y-6.3113G85X10.5375Y-6.3687
G05
X10.6Y-4.0188G85X10.5984Y-4.0416
G05
X10.7569Y-4.8113G85X10.725Y-4.8687
G05
X10.7569Y-7.0613G85X10.725Y-7.1187
G05
X10.7875Y-6.2688G85X10.7859Y-6.2916
G05
X10.9444Y-5.5613G85X10.9125Y-5.6187
G05
X10.9444Y-7.0613G85X10.9125Y-7.1187
G05
X10.975Y-4.7688G85X10.9734Y-4.7916
G05
X10.975Y-7.0188G85X10.9734Y-7.0416
G05
X11.1319Y-4.0613G85X11.1Y-4.1187
G05
X11.1625Y-5.5188G85X11.1609Y-5.5416
G05
X11.1625Y-7.0188G85X11.1609Y-7.0416
G05
X11.2257Y-7.0613G85X11.1937Y-7.1187
G05
X11.3194Y-6.3113G85X11.2875Y-6.3687
G05
X11.35Y-4.0188G85X11.3484Y-4.0416
G05
X11.4437Y-7.0188G85X11.4422Y-7.0416
G05
X11.5069Y-4.8113G85X11.475Y-4.8687
G05
X11.5375Y-6.2688G85X11.5359Y-6.2916
G05
X11.6944Y-5.5613G85X11.6625Y-5.6187
G05
X11.6944Y-7.0613G85X11.6625Y-7.1187
G05
X11.725Y-4.7688G85X11.7234Y-4.7916
G05
X11.8819Y-4.0613G85X11.85Y-4.1187
G05
X11.8819Y-7.0613G85X11.85Y-7.1187
G05
X11.9125Y-5.5188G85X11.9109Y-5.5416
G05
X11.9125Y-7.0188G85X11.9109Y-7.0416
G05
X12.0694Y-7.0613G85X12.0375Y-7.1187
G05
X12.1Y-4.0188G85X12.0984Y-4.0416
G05
X12.1Y-7.0188G85X12.0984Y-7.0416
G05
X12.1632Y-6.3113G85X12.1312Y-6.3687
G05
X12.2569Y-4.8113G85X12.225Y-4.8687
G05
X12.2875Y-7.0188G85X12.2859Y-7.0416
G05
X12.3812Y-6.2688G85X12.3797Y-6.2916
G05
X12.475Y-4.7688G85X12.4734Y-4.7916
G05
X12.6319Y-4.0613G85X12.6Y-4.1187
G05
X12.85Y-4.0188G85X12.8484Y-4.0416
G05
X12.9132Y-5.5613G85X12.8812Y-5.6187
G05
X13.0069Y-6.3113G85X12.975Y-6.3687
G05
X13.1312Y-5.5188G85X13.1297Y-5.5416
G05
X13.1944Y-4.8113G85X13.1625Y-4.8687
G05
X13.225Y-6.2688G85X13.2234Y-6.2916
G05
X13.3819Y-4.0613G85X13.35Y-4.1187
G05
X13.4125Y-4.7688G85X13.4109Y-4.7916
G05
X13.6Y-4.0188G85X13.5984Y-4.0416
G05
T5
X2.4626Y-6.0531G85X2.7933Y-6.0531
G05
X13.7028Y-6.0531G85X14.0335Y-6.0531
G05
T6
X7.6447Y-5.6998G85X7.7274Y-5.6998
G05
X10.0896Y-7.1939G85X10.1722Y-7.1939
G05
X12.8346Y-4.936G85X12.9173Y-4.936
G05
T0
M30
